%TF.GenerationSoftware,KiCad,Pcbnew,7.0.6-0*%
%TF.CreationDate,2023-11-24T14:46:05+00:00*%
%TF.ProjectId,TPoS Printer,54506f53-2050-4726-996e-7465722e6b69,rev?*%
%TF.SameCoordinates,Original*%
%TF.FileFunction,Copper,L2,Bot*%
%TF.FilePolarity,Positive*%
%FSLAX46Y46*%
G04 Gerber Fmt 4.6, Leading zero omitted, Abs format (unit mm)*
G04 Created by KiCad (PCBNEW 7.0.6-0) date 2023-11-24 14:46:05*
%MOMM*%
%LPD*%
G01*
G04 APERTURE LIST*
G04 Aperture macros list*
%AMRoundRect*
0 Rectangle with rounded corners*
0 $1 Rounding radius*
0 $2 $3 $4 $5 $6 $7 $8 $9 X,Y pos of 4 corners*
0 Add a 4 corners polygon primitive as box body*
4,1,4,$2,$3,$4,$5,$6,$7,$8,$9,$2,$3,0*
0 Add four circle primitives for the rounded corners*
1,1,$1+$1,$2,$3*
1,1,$1+$1,$4,$5*
1,1,$1+$1,$6,$7*
1,1,$1+$1,$8,$9*
0 Add four rect primitives between the rounded corners*
20,1,$1+$1,$2,$3,$4,$5,0*
20,1,$1+$1,$4,$5,$6,$7,0*
20,1,$1+$1,$6,$7,$8,$9,0*
20,1,$1+$1,$8,$9,$2,$3,0*%
G04 Aperture macros list end*
%TA.AperFunction,ComponentPad*%
%ADD10RoundRect,0.250000X-0.600000X-0.725000X0.600000X-0.725000X0.600000X0.725000X-0.600000X0.725000X0*%
%TD*%
%TA.AperFunction,ComponentPad*%
%ADD11O,1.700000X1.950000*%
%TD*%
%TA.AperFunction,ComponentPad*%
%ADD12C,1.700000*%
%TD*%
%TA.AperFunction,ComponentPad*%
%ADD13O,1.700000X1.700000*%
%TD*%
%TA.AperFunction,Conductor*%
%ADD14C,0.250000*%
%TD*%
G04 APERTURE END LIST*
D10*
%TO.P,JST_XH_B5B-XH-A_1x05,1*%
%TO.N,N/C*%
X97376000Y-67564000D03*
D11*
%TO.P,JST_XH_B5B-XH-A_1x05,2*%
X99876000Y-67564000D03*
%TO.P,JST_XH_B5B-XH-A_1x05,3*%
X102376000Y-67564000D03*
%TO.P,JST_XH_B5B-XH-A_1x05,4*%
X104876000Y-67564000D03*
%TO.P,JST_XH_B5B-XH-A_1x05,5*%
X107376000Y-67564000D03*
%TD*%
D12*
%TO.P,REF\u002A\u002A,1*%
%TO.N,N/C*%
X68072000Y-49530000D03*
D13*
%TO.P,REF\u002A\u002A,2*%
X68072000Y-52070000D03*
%TO.P,REF\u002A\u002A,3*%
X68072000Y-54610000D03*
%TO.P,REF\u002A\u002A,4*%
X68072000Y-57150000D03*
%TO.P,REF\u002A\u002A,5*%
X68072000Y-59690000D03*
%TO.P,REF\u002A\u002A,6*%
X68072000Y-62230000D03*
%TO.P,REF\u002A\u002A,7*%
X68072000Y-64770000D03*
%TO.P,REF\u002A\u002A,8*%
X68072000Y-67310000D03*
%TD*%
D12*
%TO.P,REF\u002A\u002A,1*%
%TO.N,N/C*%
X83072000Y-49530000D03*
D13*
%TO.P,REF\u002A\u002A,2*%
X83072000Y-52070000D03*
%TO.P,REF\u002A\u002A,3*%
X83072000Y-54610000D03*
%TO.P,REF\u002A\u002A,4*%
X83072000Y-57150000D03*
%TO.P,REF\u002A\u002A,5*%
X83072000Y-59690000D03*
%TO.P,REF\u002A\u002A,6*%
X83072000Y-62230000D03*
%TO.P,REF\u002A\u002A,7*%
X83072000Y-64770000D03*
%TO.P,REF\u002A\u002A,8*%
X83072000Y-67310000D03*
%TD*%
D14*
%TO.N,*%
X83072000Y-52070000D02*
X87517000Y-56515000D01*
X87517000Y-56515000D02*
X99060000Y-56515000D01*
X99060000Y-56515000D02*
X107376000Y-64831000D01*
X107376000Y-64831000D02*
X107376000Y-67564000D01*
X83072000Y-62230000D02*
X97042000Y-62230000D01*
X103378000Y-71374000D02*
X104876000Y-69876000D01*
X72136000Y-71374000D02*
X103378000Y-71374000D01*
X97042000Y-62230000D02*
X102376000Y-67564000D01*
X104876000Y-69876000D02*
X104876000Y-67564000D01*
X68072000Y-67310000D02*
X72136000Y-71374000D01*
%TD*%
%TA.AperFunction,NonConductor*%
G36*
X86375677Y-45739685D02*
G01*
X86396319Y-45756319D01*
X88228681Y-47588681D01*
X88262166Y-47650004D01*
X88265000Y-47676362D01*
X88265000Y-55245000D01*
X111073638Y-55245000D01*
X111140677Y-55264685D01*
X111161319Y-55281319D01*
X112358681Y-56478681D01*
X112392166Y-56540004D01*
X112395000Y-56566362D01*
X112395000Y-71703638D01*
X112375315Y-71770677D01*
X112358681Y-71791319D01*
X111161319Y-72988681D01*
X111099996Y-73022166D01*
X111073638Y-73025000D01*
X66091362Y-73025000D01*
X66024323Y-73005315D01*
X66003681Y-72988681D01*
X64806319Y-71791319D01*
X64772834Y-71729996D01*
X64770000Y-71703638D01*
X64770000Y-67310000D01*
X66716341Y-67310000D01*
X66736936Y-67545403D01*
X66736938Y-67545413D01*
X66798094Y-67773655D01*
X66798096Y-67773659D01*
X66798097Y-67773663D01*
X66868391Y-67924408D01*
X66897965Y-67987830D01*
X66897967Y-67987834D01*
X67006281Y-68142521D01*
X67033505Y-68181401D01*
X67200599Y-68348495D01*
X67251457Y-68384106D01*
X67394165Y-68484032D01*
X67394167Y-68484033D01*
X67394170Y-68484035D01*
X67608337Y-68583903D01*
X67836592Y-68645063D01*
X68024918Y-68661539D01*
X68071999Y-68665659D01*
X68072000Y-68665659D01*
X68072001Y-68665659D01*
X68111234Y-68662226D01*
X68307408Y-68645063D01*
X68407873Y-68618143D01*
X68477722Y-68619806D01*
X68527646Y-68650236D01*
X70090164Y-70212755D01*
X71635197Y-71757788D01*
X71645022Y-71770051D01*
X71645243Y-71769869D01*
X71650214Y-71775878D01*
X71671043Y-71795437D01*
X71700635Y-71823226D01*
X71721529Y-71844120D01*
X71727011Y-71848373D01*
X71731443Y-71852157D01*
X71765418Y-71884062D01*
X71782976Y-71893714D01*
X71799233Y-71904393D01*
X71815064Y-71916673D01*
X71834737Y-71925186D01*
X71857833Y-71935182D01*
X71863077Y-71937750D01*
X71903908Y-71960197D01*
X71916523Y-71963435D01*
X71923305Y-71965177D01*
X71941719Y-71971481D01*
X71960104Y-71979438D01*
X72006157Y-71986732D01*
X72011826Y-71987906D01*
X72056981Y-71999500D01*
X72077016Y-71999500D01*
X72096413Y-72001026D01*
X72116196Y-72004160D01*
X72162583Y-71999775D01*
X72168422Y-71999500D01*
X103295257Y-71999500D01*
X103310877Y-72001224D01*
X103310904Y-72000939D01*
X103318660Y-72001671D01*
X103318667Y-72001673D01*
X103387814Y-71999500D01*
X103417350Y-71999500D01*
X103424228Y-71998630D01*
X103430041Y-71998172D01*
X103476627Y-71996709D01*
X103495869Y-71991117D01*
X103514912Y-71987174D01*
X103534792Y-71984664D01*
X103578122Y-71967507D01*
X103583646Y-71965617D01*
X103587396Y-71964527D01*
X103628390Y-71952618D01*
X103645629Y-71942422D01*
X103663103Y-71933862D01*
X103681727Y-71926488D01*
X103681727Y-71926487D01*
X103681732Y-71926486D01*
X103719449Y-71899082D01*
X103724305Y-71895892D01*
X103764420Y-71872170D01*
X103778589Y-71857999D01*
X103793379Y-71845368D01*
X103809587Y-71833594D01*
X103839299Y-71797676D01*
X103843212Y-71793376D01*
X105259787Y-70376802D01*
X105272042Y-70366986D01*
X105271859Y-70366764D01*
X105277866Y-70361792D01*
X105277877Y-70361786D01*
X105308775Y-70328882D01*
X105325227Y-70311364D01*
X105335671Y-70300918D01*
X105346120Y-70290471D01*
X105350379Y-70284978D01*
X105354152Y-70280561D01*
X105386062Y-70246582D01*
X105395715Y-70229020D01*
X105406389Y-70212770D01*
X105418673Y-70196936D01*
X105437180Y-70154167D01*
X105439749Y-70148924D01*
X105462196Y-70108093D01*
X105462197Y-70108092D01*
X105467177Y-70088691D01*
X105473478Y-70070288D01*
X105481438Y-70051896D01*
X105488730Y-70005849D01*
X105489911Y-70000152D01*
X105501500Y-69955019D01*
X105501500Y-69934982D01*
X105503027Y-69915582D01*
X105506160Y-69895804D01*
X105501775Y-69849415D01*
X105501500Y-69843577D01*
X105501500Y-68964225D01*
X105521185Y-68897186D01*
X105554373Y-68862653D01*
X105747401Y-68727495D01*
X105914495Y-68560401D01*
X106024426Y-68403401D01*
X106079001Y-68359778D01*
X106148500Y-68352584D01*
X106210855Y-68384106D01*
X106227571Y-68403398D01*
X106284033Y-68484035D01*
X106337506Y-68560403D01*
X106422165Y-68645061D01*
X106504599Y-68727495D01*
X106547675Y-68757657D01*
X106698165Y-68863032D01*
X106698167Y-68863033D01*
X106698170Y-68863035D01*
X106912337Y-68962903D01*
X106912343Y-68962904D01*
X106912344Y-68962905D01*
X106953050Y-68973812D01*
X107140592Y-69024063D01*
X107317034Y-69039500D01*
X107375999Y-69044659D01*
X107376000Y-69044659D01*
X107376001Y-69044659D01*
X107434966Y-69039500D01*
X107611408Y-69024063D01*
X107839663Y-68962903D01*
X108053829Y-68863035D01*
X108247401Y-68727495D01*
X108414495Y-68560401D01*
X108550035Y-68366829D01*
X108649903Y-68152663D01*
X108711063Y-67924408D01*
X108726500Y-67747966D01*
X108726500Y-67380034D01*
X108711063Y-67203592D01*
X108649903Y-66975337D01*
X108550035Y-66761171D01*
X108537936Y-66743891D01*
X108414494Y-66567597D01*
X108247402Y-66400506D01*
X108247401Y-66400505D01*
X108063170Y-66271505D01*
X108054376Y-66265347D01*
X108010751Y-66210770D01*
X108001500Y-66163772D01*
X108001500Y-64913742D01*
X108003224Y-64898123D01*
X108002939Y-64898097D01*
X108003671Y-64890339D01*
X108003673Y-64890333D01*
X108001499Y-64821185D01*
X108001500Y-64791650D01*
X108000631Y-64784770D01*
X108000172Y-64778943D01*
X107998709Y-64732372D01*
X107993122Y-64713144D01*
X107989174Y-64694084D01*
X107986663Y-64674204D01*
X107969512Y-64630887D01*
X107967619Y-64625358D01*
X107954618Y-64580609D01*
X107954616Y-64580606D01*
X107944423Y-64563371D01*
X107935861Y-64545894D01*
X107928487Y-64527270D01*
X107928486Y-64527268D01*
X107901079Y-64489545D01*
X107897888Y-64484686D01*
X107874172Y-64444583D01*
X107874165Y-64444574D01*
X107860006Y-64430415D01*
X107847368Y-64415619D01*
X107835594Y-64399413D01*
X107799688Y-64369709D01*
X107795376Y-64365786D01*
X99560803Y-56131212D01*
X99550980Y-56118950D01*
X99550759Y-56119134D01*
X99545786Y-56113123D01*
X99544059Y-56111501D01*
X99495364Y-56065773D01*
X99484919Y-56055328D01*
X99474475Y-56044883D01*
X99468986Y-56040625D01*
X99464561Y-56036847D01*
X99430582Y-56004938D01*
X99430580Y-56004936D01*
X99430577Y-56004935D01*
X99413029Y-55995288D01*
X99396763Y-55984604D01*
X99380933Y-55972325D01*
X99338168Y-55953818D01*
X99332922Y-55951248D01*
X99292093Y-55928803D01*
X99292092Y-55928802D01*
X99272693Y-55923822D01*
X99254281Y-55917518D01*
X99235898Y-55909562D01*
X99235892Y-55909560D01*
X99189874Y-55902272D01*
X99184152Y-55901087D01*
X99139021Y-55889500D01*
X99139019Y-55889500D01*
X99118984Y-55889500D01*
X99099586Y-55887973D01*
X99092162Y-55886797D01*
X99079805Y-55884840D01*
X99079804Y-55884840D01*
X99033416Y-55889225D01*
X99027578Y-55889500D01*
X87827453Y-55889500D01*
X87760414Y-55869815D01*
X87739772Y-55853181D01*
X84412237Y-52525646D01*
X84378752Y-52464323D01*
X84380142Y-52405876D01*
X84407063Y-52305408D01*
X84427659Y-52070000D01*
X84407063Y-51834592D01*
X84345903Y-51606337D01*
X84246035Y-51392171D01*
X84110495Y-51198599D01*
X84110494Y-51198597D01*
X83943402Y-51031506D01*
X83943396Y-51031501D01*
X83757842Y-50901575D01*
X83714217Y-50846998D01*
X83707023Y-50777500D01*
X83738546Y-50715145D01*
X83757842Y-50698425D01*
X83780026Y-50682891D01*
X83943401Y-50568495D01*
X84110495Y-50401401D01*
X84246035Y-50207830D01*
X84345903Y-49993663D01*
X84407063Y-49765408D01*
X84427659Y-49530000D01*
X84407063Y-49294592D01*
X84345903Y-49066337D01*
X84246035Y-48852171D01*
X84110495Y-48658599D01*
X84110494Y-48658597D01*
X83943402Y-48491506D01*
X83943395Y-48491501D01*
X83749834Y-48355967D01*
X83749830Y-48355965D01*
X83749829Y-48355964D01*
X83535663Y-48256097D01*
X83535659Y-48256096D01*
X83535655Y-48256094D01*
X83307413Y-48194938D01*
X83307403Y-48194936D01*
X83072001Y-48174341D01*
X83071999Y-48174341D01*
X82836596Y-48194936D01*
X82836586Y-48194938D01*
X82608344Y-48256094D01*
X82608335Y-48256098D01*
X82394171Y-48355964D01*
X82394169Y-48355965D01*
X82200597Y-48491505D01*
X82033505Y-48658597D01*
X81897965Y-48852169D01*
X81897964Y-48852171D01*
X81798098Y-49066335D01*
X81798094Y-49066344D01*
X81736938Y-49294586D01*
X81736936Y-49294596D01*
X81716341Y-49529999D01*
X81716341Y-49530000D01*
X81736936Y-49765403D01*
X81736938Y-49765413D01*
X81798094Y-49993655D01*
X81798096Y-49993659D01*
X81798097Y-49993663D01*
X81897965Y-50207830D01*
X81897967Y-50207834D01*
X82033501Y-50401395D01*
X82033506Y-50401402D01*
X82200597Y-50568493D01*
X82200603Y-50568498D01*
X82386158Y-50698425D01*
X82429783Y-50753002D01*
X82436977Y-50822500D01*
X82405454Y-50884855D01*
X82386158Y-50901575D01*
X82200597Y-51031505D01*
X82033505Y-51198597D01*
X81897965Y-51392169D01*
X81897964Y-51392171D01*
X81798098Y-51606335D01*
X81798094Y-51606344D01*
X81736938Y-51834586D01*
X81736936Y-51834596D01*
X81716341Y-52069999D01*
X81716341Y-52070000D01*
X81736936Y-52305403D01*
X81736938Y-52305413D01*
X81798094Y-52533655D01*
X81798096Y-52533659D01*
X81798097Y-52533663D01*
X81897965Y-52747829D01*
X81897965Y-52747830D01*
X81897967Y-52747834D01*
X82033501Y-52941395D01*
X82033506Y-52941402D01*
X82200597Y-53108493D01*
X82200603Y-53108498D01*
X82386158Y-53238425D01*
X82429783Y-53293002D01*
X82436977Y-53362500D01*
X82405454Y-53424855D01*
X82386158Y-53441575D01*
X82200597Y-53571505D01*
X82033505Y-53738597D01*
X81897965Y-53932169D01*
X81897964Y-53932171D01*
X81798098Y-54146335D01*
X81798094Y-54146344D01*
X81736938Y-54374586D01*
X81736936Y-54374596D01*
X81716341Y-54609999D01*
X81716341Y-54610000D01*
X81736936Y-54845403D01*
X81736938Y-54845413D01*
X81798094Y-55073655D01*
X81798096Y-55073659D01*
X81798097Y-55073663D01*
X81877993Y-55245000D01*
X81897965Y-55287830D01*
X81897967Y-55287834D01*
X82033501Y-55481395D01*
X82033506Y-55481402D01*
X82200597Y-55648493D01*
X82200603Y-55648498D01*
X82386158Y-55778425D01*
X82429783Y-55833002D01*
X82436977Y-55902500D01*
X82405454Y-55964855D01*
X82386158Y-55981575D01*
X82200597Y-56111505D01*
X82033505Y-56278597D01*
X81897965Y-56472169D01*
X81897964Y-56472171D01*
X81798098Y-56686335D01*
X81798094Y-56686344D01*
X81736938Y-56914586D01*
X81736936Y-56914596D01*
X81716341Y-57149999D01*
X81716341Y-57150000D01*
X81736936Y-57385403D01*
X81736938Y-57385413D01*
X81798094Y-57613655D01*
X81798096Y-57613659D01*
X81798097Y-57613663D01*
X81897965Y-57827829D01*
X81897965Y-57827830D01*
X81897967Y-57827834D01*
X82033501Y-58021395D01*
X82033506Y-58021402D01*
X82200597Y-58188493D01*
X82200603Y-58188498D01*
X82386158Y-58318425D01*
X82429783Y-58373002D01*
X82436977Y-58442500D01*
X82405454Y-58504855D01*
X82386158Y-58521575D01*
X82200597Y-58651505D01*
X82033505Y-58818597D01*
X81897965Y-59012169D01*
X81897964Y-59012171D01*
X81798098Y-59226335D01*
X81798094Y-59226344D01*
X81736938Y-59454586D01*
X81736936Y-59454596D01*
X81716341Y-59689999D01*
X81716341Y-59690000D01*
X81736936Y-59925403D01*
X81736938Y-59925413D01*
X81798094Y-60153655D01*
X81798096Y-60153659D01*
X81798097Y-60153663D01*
X81897965Y-60367830D01*
X81897967Y-60367834D01*
X82033501Y-60561395D01*
X82033506Y-60561402D01*
X82200597Y-60728493D01*
X82200603Y-60728498D01*
X82386158Y-60858425D01*
X82429783Y-60913002D01*
X82436977Y-60982500D01*
X82405454Y-61044855D01*
X82386158Y-61061575D01*
X82200597Y-61191505D01*
X82033505Y-61358597D01*
X81897965Y-61552169D01*
X81897964Y-61552171D01*
X81798098Y-61766335D01*
X81798094Y-61766344D01*
X81736938Y-61994586D01*
X81736936Y-61994596D01*
X81716341Y-62229999D01*
X81716341Y-62230000D01*
X81736936Y-62465403D01*
X81736938Y-62465413D01*
X81798094Y-62693655D01*
X81798096Y-62693659D01*
X81798097Y-62693663D01*
X81873563Y-62855500D01*
X81897965Y-62907830D01*
X81897967Y-62907834D01*
X82006281Y-63062521D01*
X82033501Y-63101396D01*
X82033506Y-63101402D01*
X82200597Y-63268493D01*
X82200603Y-63268498D01*
X82386158Y-63398425D01*
X82429783Y-63453002D01*
X82436977Y-63522500D01*
X82405454Y-63584855D01*
X82386158Y-63601575D01*
X82200597Y-63731505D01*
X82033505Y-63898597D01*
X81897965Y-64092169D01*
X81897964Y-64092171D01*
X81798098Y-64306335D01*
X81798094Y-64306344D01*
X81736938Y-64534586D01*
X81736936Y-64534596D01*
X81716341Y-64769999D01*
X81716341Y-64770000D01*
X81736936Y-65005403D01*
X81736938Y-65005413D01*
X81798094Y-65233655D01*
X81798096Y-65233659D01*
X81798097Y-65233663D01*
X81897965Y-65447830D01*
X81897967Y-65447834D01*
X82033501Y-65641395D01*
X82033506Y-65641402D01*
X82200597Y-65808493D01*
X82200603Y-65808498D01*
X82386158Y-65938425D01*
X82429783Y-65993002D01*
X82436977Y-66062500D01*
X82405454Y-66124855D01*
X82386158Y-66141575D01*
X82200597Y-66271505D01*
X82033505Y-66438597D01*
X81897965Y-66632169D01*
X81897964Y-66632171D01*
X81798098Y-66846335D01*
X81798094Y-66846344D01*
X81736938Y-67074586D01*
X81736936Y-67074596D01*
X81716341Y-67309999D01*
X81716341Y-67310000D01*
X81736936Y-67545403D01*
X81736938Y-67545413D01*
X81798094Y-67773655D01*
X81798096Y-67773659D01*
X81798097Y-67773663D01*
X81868391Y-67924408D01*
X81897965Y-67987830D01*
X81897967Y-67987834D01*
X82006281Y-68142521D01*
X82033505Y-68181401D01*
X82200599Y-68348495D01*
X82251457Y-68384106D01*
X82394165Y-68484032D01*
X82394167Y-68484033D01*
X82394170Y-68484035D01*
X82608337Y-68583903D01*
X82836592Y-68645063D01*
X83024918Y-68661539D01*
X83071999Y-68665659D01*
X83072000Y-68665659D01*
X83072001Y-68665659D01*
X83111234Y-68662226D01*
X83307408Y-68645063D01*
X83535663Y-68583903D01*
X83749830Y-68484035D01*
X83943401Y-68348495D01*
X84110495Y-68181401D01*
X84246035Y-67987830D01*
X84345903Y-67773663D01*
X84407063Y-67545408D01*
X84427659Y-67310000D01*
X84407063Y-67074592D01*
X84345903Y-66846337D01*
X84246035Y-66632171D01*
X84200822Y-66567599D01*
X84110494Y-66438597D01*
X83943402Y-66271506D01*
X83943396Y-66271501D01*
X83757842Y-66141575D01*
X83714217Y-66086998D01*
X83707023Y-66017500D01*
X83738546Y-65955145D01*
X83757842Y-65938425D01*
X83834902Y-65884467D01*
X83943401Y-65808495D01*
X84110495Y-65641401D01*
X84246035Y-65447830D01*
X84345903Y-65233663D01*
X84407063Y-65005408D01*
X84427659Y-64770000D01*
X84407063Y-64534592D01*
X84345903Y-64306337D01*
X84246035Y-64092171D01*
X84110495Y-63898599D01*
X84110494Y-63898597D01*
X83943402Y-63731506D01*
X83943396Y-63731501D01*
X83757842Y-63601575D01*
X83714217Y-63546998D01*
X83707023Y-63477500D01*
X83738546Y-63415145D01*
X83757842Y-63398425D01*
X83780026Y-63382891D01*
X83943401Y-63268495D01*
X84110495Y-63101401D01*
X84245651Y-62908377D01*
X84300229Y-62864752D01*
X84347227Y-62855500D01*
X96731548Y-62855500D01*
X96798587Y-62875185D01*
X96819229Y-62891819D01*
X99811877Y-65884467D01*
X99845362Y-65945790D01*
X99840378Y-66015482D01*
X99798506Y-66071415D01*
X99735005Y-66095676D01*
X99640596Y-66103936D01*
X99640586Y-66103938D01*
X99412344Y-66165094D01*
X99412335Y-66165098D01*
X99198171Y-66264964D01*
X99198169Y-66264965D01*
X99004597Y-66400505D01*
X98857398Y-66547705D01*
X98796075Y-66581190D01*
X98726383Y-66576206D01*
X98670450Y-66534334D01*
X98664178Y-66525120D01*
X98568712Y-66370344D01*
X98444657Y-66246289D01*
X98444656Y-66246289D01*
X98444656Y-66246288D01*
X98339137Y-66181204D01*
X98295336Y-66154187D01*
X98295331Y-66154185D01*
X98293862Y-66153698D01*
X98128797Y-66099001D01*
X98128795Y-66099000D01*
X98026010Y-66088500D01*
X96725998Y-66088500D01*
X96725981Y-66088501D01*
X96623203Y-66099000D01*
X96623200Y-66099001D01*
X96456668Y-66154185D01*
X96456663Y-66154187D01*
X96307342Y-66246289D01*
X96183289Y-66370342D01*
X96091187Y-66519663D01*
X96091185Y-66519668D01*
X96072450Y-66576206D01*
X96036001Y-66686203D01*
X96036001Y-66686204D01*
X96036000Y-66686204D01*
X96025500Y-66788983D01*
X96025500Y-68339001D01*
X96025501Y-68339018D01*
X96036000Y-68441796D01*
X96036001Y-68441799D01*
X96081894Y-68580294D01*
X96091186Y-68608334D01*
X96183288Y-68757656D01*
X96307344Y-68881712D01*
X96456666Y-68973814D01*
X96623203Y-69028999D01*
X96725991Y-69039500D01*
X98026008Y-69039499D01*
X98128797Y-69028999D01*
X98295334Y-68973814D01*
X98444656Y-68881712D01*
X98568712Y-68757656D01*
X98660814Y-68608334D01*
X98660814Y-68608331D01*
X98664178Y-68602879D01*
X98716126Y-68556154D01*
X98785088Y-68544931D01*
X98849170Y-68572774D01*
X98857398Y-68580294D01*
X99004599Y-68727495D01*
X99047675Y-68757657D01*
X99198165Y-68863032D01*
X99198167Y-68863033D01*
X99198170Y-68863035D01*
X99412337Y-68962903D01*
X99412343Y-68962904D01*
X99412344Y-68962905D01*
X99453050Y-68973812D01*
X99640592Y-69024063D01*
X99817034Y-69039500D01*
X99875999Y-69044659D01*
X99876000Y-69044659D01*
X99876001Y-69044659D01*
X99934966Y-69039500D01*
X100111408Y-69024063D01*
X100339663Y-68962903D01*
X100553829Y-68863035D01*
X100747401Y-68727495D01*
X100914495Y-68560401D01*
X101024426Y-68403401D01*
X101079001Y-68359778D01*
X101148500Y-68352584D01*
X101210855Y-68384106D01*
X101227571Y-68403398D01*
X101284033Y-68484035D01*
X101337506Y-68560403D01*
X101422165Y-68645061D01*
X101504599Y-68727495D01*
X101547675Y-68757657D01*
X101698165Y-68863032D01*
X101698167Y-68863033D01*
X101698170Y-68863035D01*
X101912337Y-68962903D01*
X101912343Y-68962904D01*
X101912344Y-68962905D01*
X101953050Y-68973812D01*
X102140592Y-69024063D01*
X102317034Y-69039500D01*
X102375999Y-69044659D01*
X102376000Y-69044659D01*
X102376001Y-69044659D01*
X102434966Y-69039500D01*
X102611408Y-69024063D01*
X102839663Y-68962903D01*
X103053829Y-68863035D01*
X103247401Y-68727495D01*
X103414495Y-68560401D01*
X103524426Y-68403401D01*
X103579001Y-68359778D01*
X103648500Y-68352584D01*
X103710855Y-68384106D01*
X103727571Y-68403398D01*
X103784033Y-68484035D01*
X103837506Y-68560403D01*
X103922165Y-68645061D01*
X104004599Y-68727495D01*
X104197624Y-68862653D01*
X104241248Y-68917228D01*
X104250500Y-68964226D01*
X104250500Y-69565547D01*
X104230815Y-69632586D01*
X104214181Y-69653228D01*
X103155228Y-70712181D01*
X103093905Y-70745666D01*
X103067547Y-70748500D01*
X72446452Y-70748500D01*
X72379413Y-70728815D01*
X72358771Y-70712181D01*
X69412237Y-67765646D01*
X69378752Y-67704323D01*
X69380142Y-67645876D01*
X69407063Y-67545408D01*
X69427659Y-67310000D01*
X69407063Y-67074592D01*
X69345903Y-66846337D01*
X69246035Y-66632171D01*
X69200822Y-66567599D01*
X69110494Y-66438597D01*
X68943402Y-66271506D01*
X68943396Y-66271501D01*
X68757842Y-66141575D01*
X68714217Y-66086998D01*
X68707023Y-66017500D01*
X68738546Y-65955145D01*
X68757842Y-65938425D01*
X68834902Y-65884467D01*
X68943401Y-65808495D01*
X69110495Y-65641401D01*
X69246035Y-65447830D01*
X69345903Y-65233663D01*
X69407063Y-65005408D01*
X69427659Y-64770000D01*
X69407063Y-64534592D01*
X69345903Y-64306337D01*
X69246035Y-64092171D01*
X69110495Y-63898599D01*
X69110494Y-63898597D01*
X68943402Y-63731506D01*
X68943396Y-63731501D01*
X68757842Y-63601575D01*
X68714217Y-63546998D01*
X68707023Y-63477500D01*
X68738546Y-63415145D01*
X68757842Y-63398425D01*
X68780026Y-63382891D01*
X68943401Y-63268495D01*
X69110495Y-63101401D01*
X69246035Y-62907830D01*
X69345903Y-62693663D01*
X69407063Y-62465408D01*
X69427659Y-62230000D01*
X69407063Y-61994592D01*
X69345903Y-61766337D01*
X69246035Y-61552171D01*
X69245652Y-61551623D01*
X69110494Y-61358597D01*
X68943402Y-61191506D01*
X68943396Y-61191501D01*
X68757842Y-61061575D01*
X68714217Y-61006998D01*
X68707023Y-60937500D01*
X68738546Y-60875145D01*
X68757842Y-60858425D01*
X68780026Y-60842891D01*
X68943401Y-60728495D01*
X69110495Y-60561401D01*
X69246035Y-60367830D01*
X69345903Y-60153663D01*
X69407063Y-59925408D01*
X69427659Y-59690000D01*
X69407063Y-59454592D01*
X69345903Y-59226337D01*
X69246035Y-59012171D01*
X69110495Y-58818599D01*
X69110494Y-58818597D01*
X68943402Y-58651506D01*
X68943396Y-58651501D01*
X68757842Y-58521575D01*
X68714217Y-58466998D01*
X68707023Y-58397500D01*
X68738546Y-58335145D01*
X68757842Y-58318425D01*
X68780026Y-58302891D01*
X68943401Y-58188495D01*
X69110495Y-58021401D01*
X69246035Y-57827830D01*
X69345903Y-57613663D01*
X69407063Y-57385408D01*
X69427659Y-57150000D01*
X69427235Y-57145159D01*
X69413605Y-56989364D01*
X69407063Y-56914592D01*
X69345903Y-56686337D01*
X69246035Y-56472171D01*
X69110495Y-56278599D01*
X69110494Y-56278597D01*
X68943402Y-56111506D01*
X68943396Y-56111501D01*
X68757842Y-55981575D01*
X68714217Y-55926998D01*
X68707023Y-55857500D01*
X68738546Y-55795145D01*
X68757842Y-55778425D01*
X68780026Y-55762891D01*
X68943401Y-55648495D01*
X69110495Y-55481401D01*
X69246035Y-55287830D01*
X69345903Y-55073663D01*
X69407063Y-54845408D01*
X69427659Y-54610000D01*
X69427625Y-54609617D01*
X69419426Y-54515898D01*
X69407063Y-54374592D01*
X69345903Y-54146337D01*
X69246035Y-53932171D01*
X69110495Y-53738599D01*
X69110494Y-53738597D01*
X68943402Y-53571506D01*
X68943396Y-53571501D01*
X68757842Y-53441575D01*
X68714217Y-53386998D01*
X68707023Y-53317500D01*
X68738546Y-53255145D01*
X68757842Y-53238425D01*
X68780026Y-53222891D01*
X68943401Y-53108495D01*
X69110495Y-52941401D01*
X69246035Y-52747830D01*
X69345903Y-52533663D01*
X69407063Y-52305408D01*
X69427659Y-52070000D01*
X69407063Y-51834592D01*
X69345903Y-51606337D01*
X69246035Y-51392171D01*
X69110495Y-51198599D01*
X69110494Y-51198597D01*
X68943402Y-51031506D01*
X68943396Y-51031501D01*
X68757842Y-50901575D01*
X68714217Y-50846998D01*
X68707023Y-50777500D01*
X68738546Y-50715145D01*
X68757842Y-50698425D01*
X68780026Y-50682891D01*
X68943401Y-50568495D01*
X69110495Y-50401401D01*
X69246035Y-50207830D01*
X69345903Y-49993663D01*
X69407063Y-49765408D01*
X69427659Y-49530000D01*
X69407063Y-49294592D01*
X69345903Y-49066337D01*
X69246035Y-48852171D01*
X69110495Y-48658599D01*
X69110494Y-48658597D01*
X68943402Y-48491506D01*
X68943395Y-48491501D01*
X68749834Y-48355967D01*
X68749830Y-48355965D01*
X68749830Y-48355964D01*
X68535663Y-48256097D01*
X68535659Y-48256096D01*
X68535655Y-48256094D01*
X68307413Y-48194938D01*
X68307403Y-48194936D01*
X68072001Y-48174341D01*
X68071999Y-48174341D01*
X67836596Y-48194936D01*
X67836586Y-48194938D01*
X67608344Y-48256094D01*
X67608335Y-48256098D01*
X67394171Y-48355964D01*
X67394169Y-48355965D01*
X67200597Y-48491505D01*
X67033505Y-48658597D01*
X66897965Y-48852169D01*
X66897964Y-48852171D01*
X66798098Y-49066335D01*
X66798094Y-49066344D01*
X66736938Y-49294586D01*
X66736936Y-49294596D01*
X66716341Y-49529999D01*
X66716341Y-49530000D01*
X66736936Y-49765403D01*
X66736938Y-49765413D01*
X66798094Y-49993655D01*
X66798096Y-49993659D01*
X66798097Y-49993663D01*
X66897965Y-50207829D01*
X66897965Y-50207830D01*
X66897967Y-50207834D01*
X67033501Y-50401395D01*
X67033506Y-50401402D01*
X67200597Y-50568493D01*
X67200603Y-50568498D01*
X67386158Y-50698425D01*
X67429783Y-50753002D01*
X67436977Y-50822500D01*
X67405454Y-50884855D01*
X67386158Y-50901575D01*
X67200597Y-51031505D01*
X67033505Y-51198597D01*
X66897965Y-51392169D01*
X66897964Y-51392171D01*
X66798098Y-51606335D01*
X66798094Y-51606344D01*
X66736938Y-51834586D01*
X66736936Y-51834596D01*
X66716341Y-52069999D01*
X66716341Y-52070000D01*
X66736936Y-52305403D01*
X66736938Y-52305413D01*
X66798094Y-52533655D01*
X66798096Y-52533659D01*
X66798097Y-52533663D01*
X66897965Y-52747829D01*
X66897965Y-52747830D01*
X66897967Y-52747834D01*
X67033501Y-52941395D01*
X67033506Y-52941402D01*
X67200597Y-53108493D01*
X67200603Y-53108498D01*
X67386158Y-53238425D01*
X67429783Y-53293002D01*
X67436977Y-53362500D01*
X67405454Y-53424855D01*
X67386158Y-53441575D01*
X67200597Y-53571505D01*
X67033505Y-53738597D01*
X66897965Y-53932169D01*
X66897964Y-53932171D01*
X66798098Y-54146335D01*
X66798094Y-54146344D01*
X66736938Y-54374586D01*
X66736936Y-54374596D01*
X66716341Y-54609999D01*
X66716341Y-54610000D01*
X66736936Y-54845403D01*
X66736938Y-54845413D01*
X66798094Y-55073655D01*
X66798096Y-55073659D01*
X66798097Y-55073663D01*
X66877993Y-55245000D01*
X66897965Y-55287830D01*
X66897967Y-55287834D01*
X67033501Y-55481395D01*
X67033506Y-55481402D01*
X67200597Y-55648493D01*
X67200603Y-55648498D01*
X67386158Y-55778425D01*
X67429783Y-55833002D01*
X67436977Y-55902500D01*
X67405454Y-55964855D01*
X67386158Y-55981575D01*
X67200597Y-56111505D01*
X67033505Y-56278597D01*
X66897965Y-56472169D01*
X66897964Y-56472171D01*
X66798098Y-56686335D01*
X66798094Y-56686344D01*
X66736938Y-56914586D01*
X66736936Y-56914596D01*
X66716341Y-57149999D01*
X66716341Y-57150000D01*
X66736936Y-57385403D01*
X66736938Y-57385413D01*
X66798094Y-57613655D01*
X66798096Y-57613659D01*
X66798097Y-57613663D01*
X66897965Y-57827829D01*
X66897965Y-57827830D01*
X66897967Y-57827834D01*
X67033501Y-58021395D01*
X67033506Y-58021402D01*
X67200597Y-58188493D01*
X67200603Y-58188498D01*
X67386158Y-58318425D01*
X67429783Y-58373002D01*
X67436977Y-58442500D01*
X67405454Y-58504855D01*
X67386158Y-58521575D01*
X67200597Y-58651505D01*
X67033505Y-58818597D01*
X66897965Y-59012169D01*
X66897964Y-59012171D01*
X66798098Y-59226335D01*
X66798094Y-59226344D01*
X66736938Y-59454586D01*
X66736936Y-59454596D01*
X66716341Y-59689999D01*
X66716341Y-59690000D01*
X66736936Y-59925403D01*
X66736938Y-59925413D01*
X66798094Y-60153655D01*
X66798096Y-60153659D01*
X66798097Y-60153663D01*
X66897965Y-60367829D01*
X66897965Y-60367830D01*
X66897967Y-60367834D01*
X67033501Y-60561395D01*
X67033506Y-60561402D01*
X67200597Y-60728493D01*
X67200603Y-60728498D01*
X67386158Y-60858425D01*
X67429783Y-60913002D01*
X67436977Y-60982500D01*
X67405454Y-61044855D01*
X67386158Y-61061575D01*
X67200597Y-61191505D01*
X67033505Y-61358597D01*
X66897965Y-61552169D01*
X66897964Y-61552171D01*
X66798098Y-61766335D01*
X66798094Y-61766344D01*
X66736938Y-61994586D01*
X66736936Y-61994596D01*
X66716341Y-62229999D01*
X66716341Y-62230000D01*
X66736936Y-62465403D01*
X66736938Y-62465413D01*
X66798094Y-62693655D01*
X66798096Y-62693659D01*
X66798097Y-62693663D01*
X66873563Y-62855500D01*
X66897965Y-62907830D01*
X66897967Y-62907834D01*
X67006281Y-63062521D01*
X67033501Y-63101396D01*
X67033506Y-63101402D01*
X67200597Y-63268493D01*
X67200603Y-63268498D01*
X67386158Y-63398425D01*
X67429783Y-63453002D01*
X67436977Y-63522500D01*
X67405454Y-63584855D01*
X67386158Y-63601575D01*
X67200597Y-63731505D01*
X67033505Y-63898597D01*
X66897965Y-64092169D01*
X66897964Y-64092171D01*
X66798098Y-64306335D01*
X66798094Y-64306344D01*
X66736938Y-64534586D01*
X66736936Y-64534596D01*
X66716341Y-64769999D01*
X66716341Y-64770000D01*
X66736936Y-65005403D01*
X66736938Y-65005413D01*
X66798094Y-65233655D01*
X66798096Y-65233659D01*
X66798097Y-65233663D01*
X66897965Y-65447829D01*
X66897965Y-65447830D01*
X66897967Y-65447834D01*
X67033501Y-65641395D01*
X67033506Y-65641402D01*
X67200597Y-65808493D01*
X67200603Y-65808498D01*
X67386158Y-65938425D01*
X67429783Y-65993002D01*
X67436977Y-66062500D01*
X67405454Y-66124855D01*
X67386158Y-66141575D01*
X67200597Y-66271505D01*
X67033505Y-66438597D01*
X66897965Y-66632169D01*
X66897964Y-66632171D01*
X66798098Y-66846335D01*
X66798094Y-66846344D01*
X66736938Y-67074586D01*
X66736936Y-67074596D01*
X66716341Y-67309999D01*
X66716341Y-67310000D01*
X64770000Y-67310000D01*
X64770000Y-47041362D01*
X64789685Y-46974323D01*
X64806319Y-46953681D01*
X66003681Y-45756319D01*
X66065004Y-45722834D01*
X66091362Y-45720000D01*
X86308638Y-45720000D01*
X86375677Y-45739685D01*
G37*
%TD.AperFunction*%
%TA.AperFunction,NonConductor*%
G36*
X84632862Y-54515898D02*
G01*
X84639325Y-54521916D01*
X85895834Y-55778425D01*
X87016197Y-56898788D01*
X87026022Y-56911051D01*
X87026243Y-56910869D01*
X87031214Y-56916878D01*
X87057217Y-56941295D01*
X87081635Y-56964226D01*
X87102529Y-56985120D01*
X87108011Y-56989373D01*
X87112443Y-56993157D01*
X87146418Y-57025062D01*
X87163976Y-57034714D01*
X87180235Y-57045395D01*
X87196064Y-57057673D01*
X87238838Y-57076182D01*
X87244056Y-57078738D01*
X87284908Y-57101197D01*
X87304316Y-57106180D01*
X87322717Y-57112480D01*
X87341104Y-57120437D01*
X87384488Y-57127308D01*
X87387119Y-57127725D01*
X87392839Y-57128909D01*
X87437981Y-57140500D01*
X87458016Y-57140500D01*
X87477414Y-57142026D01*
X87497194Y-57145159D01*
X87497195Y-57145160D01*
X87497195Y-57145159D01*
X87497196Y-57145160D01*
X87543583Y-57140775D01*
X87549422Y-57140500D01*
X98749548Y-57140500D01*
X98816587Y-57160185D01*
X98837229Y-57176819D01*
X106714181Y-65053771D01*
X106747666Y-65115094D01*
X106750500Y-65141452D01*
X106750500Y-66163773D01*
X106730815Y-66230812D01*
X106697623Y-66265348D01*
X106504597Y-66400505D01*
X106337505Y-66567597D01*
X106227575Y-66724595D01*
X106172998Y-66768220D01*
X106103500Y-66775414D01*
X106041145Y-66743891D01*
X106024425Y-66724595D01*
X105914494Y-66567597D01*
X105747402Y-66400506D01*
X105747395Y-66400501D01*
X105553834Y-66264967D01*
X105553830Y-66264965D01*
X105501500Y-66240563D01*
X105339663Y-66165097D01*
X105339659Y-66165096D01*
X105339655Y-66165094D01*
X105111413Y-66103938D01*
X105111403Y-66103936D01*
X104876001Y-66083341D01*
X104875999Y-66083341D01*
X104640596Y-66103936D01*
X104640586Y-66103938D01*
X104412344Y-66165094D01*
X104412335Y-66165098D01*
X104198171Y-66264964D01*
X104198169Y-66264965D01*
X104004597Y-66400505D01*
X103837505Y-66567597D01*
X103727575Y-66724595D01*
X103672998Y-66768220D01*
X103603500Y-66775414D01*
X103541145Y-66743891D01*
X103524425Y-66724595D01*
X103414494Y-66567597D01*
X103247402Y-66400506D01*
X103247395Y-66400501D01*
X103053834Y-66264967D01*
X103053830Y-66264965D01*
X103001500Y-66240563D01*
X102839663Y-66165097D01*
X102839659Y-66165096D01*
X102839655Y-66165094D01*
X102611413Y-66103938D01*
X102611403Y-66103936D01*
X102376001Y-66083341D01*
X102375999Y-66083341D01*
X102140596Y-66103936D01*
X102140586Y-66103938D01*
X101941542Y-66157271D01*
X101871692Y-66155608D01*
X101821768Y-66125177D01*
X97542803Y-61846212D01*
X97532980Y-61833950D01*
X97532759Y-61834134D01*
X97527786Y-61828123D01*
X97527785Y-61828123D01*
X97477364Y-61780773D01*
X97462926Y-61766335D01*
X97456475Y-61759883D01*
X97450986Y-61755625D01*
X97446561Y-61751847D01*
X97412582Y-61719938D01*
X97412580Y-61719936D01*
X97412577Y-61719935D01*
X97395029Y-61710288D01*
X97378763Y-61699604D01*
X97362933Y-61687325D01*
X97320168Y-61668818D01*
X97314922Y-61666248D01*
X97274093Y-61643803D01*
X97274092Y-61643802D01*
X97254693Y-61638822D01*
X97236281Y-61632518D01*
X97217898Y-61624562D01*
X97217892Y-61624560D01*
X97171874Y-61617272D01*
X97166152Y-61616087D01*
X97121021Y-61604500D01*
X97121019Y-61604500D01*
X97100984Y-61604500D01*
X97081586Y-61602973D01*
X97074162Y-61601797D01*
X97061805Y-61599840D01*
X97061804Y-61599840D01*
X97015416Y-61604225D01*
X97009578Y-61604500D01*
X84347227Y-61604500D01*
X84280188Y-61584815D01*
X84245652Y-61551623D01*
X84110494Y-61358597D01*
X83943402Y-61191506D01*
X83943396Y-61191501D01*
X83757842Y-61061575D01*
X83714217Y-61006998D01*
X83707023Y-60937500D01*
X83738546Y-60875145D01*
X83757842Y-60858425D01*
X83780026Y-60842891D01*
X83943401Y-60728495D01*
X84110495Y-60561401D01*
X84246035Y-60367830D01*
X84345903Y-60153663D01*
X84407063Y-59925408D01*
X84427659Y-59690000D01*
X84407063Y-59454592D01*
X84345903Y-59226337D01*
X84246035Y-59012171D01*
X84110495Y-58818599D01*
X84110494Y-58818597D01*
X83943402Y-58651506D01*
X83943396Y-58651501D01*
X83757842Y-58521575D01*
X83714217Y-58466998D01*
X83707023Y-58397500D01*
X83738546Y-58335145D01*
X83757842Y-58318425D01*
X83780026Y-58302891D01*
X83943401Y-58188495D01*
X84110495Y-58021401D01*
X84246035Y-57827830D01*
X84345903Y-57613663D01*
X84407063Y-57385408D01*
X84427659Y-57150000D01*
X84427235Y-57145159D01*
X84413605Y-56989364D01*
X84407063Y-56914592D01*
X84345903Y-56686337D01*
X84246035Y-56472171D01*
X84110495Y-56278599D01*
X84110494Y-56278597D01*
X83943402Y-56111506D01*
X83943396Y-56111501D01*
X83757842Y-55981575D01*
X83714217Y-55926998D01*
X83707023Y-55857500D01*
X83738546Y-55795145D01*
X83757842Y-55778425D01*
X83780026Y-55762891D01*
X83943401Y-55648495D01*
X84110495Y-55481401D01*
X84246035Y-55287830D01*
X84345903Y-55073663D01*
X84407063Y-54845408D01*
X84427659Y-54610000D01*
X84427659Y-54609999D01*
X84427659Y-54609611D01*
X84427707Y-54609445D01*
X84428131Y-54604606D01*
X84429103Y-54604691D01*
X84447344Y-54542572D01*
X84500148Y-54496817D01*
X84569306Y-54486873D01*
X84632862Y-54515898D01*
G37*
%TD.AperFunction*%
M02*
