%TF.GenerationSoftware,KiCad,Pcbnew,7.0.6-0*%
%TF.CreationDate,2023-11-30T09:39:26+00:00*%
%TF.ProjectId,TPoS Printer,54506f53-2050-4726-996e-7465722e6b69,rev?*%
%TF.SameCoordinates,Original*%
%TF.FileFunction,Copper,L2,Bot*%
%TF.FilePolarity,Positive*%
%FSLAX46Y46*%
G04 Gerber Fmt 4.6, Leading zero omitted, Abs format (unit mm)*
G04 Created by KiCad (PCBNEW 7.0.6-0) date 2023-11-30 09:39:26*
%MOMM*%
%LPD*%
G01*
G04 APERTURE LIST*
G04 Aperture macros list*
%AMRoundRect*
0 Rectangle with rounded corners*
0 $1 Rounding radius*
0 $2 $3 $4 $5 $6 $7 $8 $9 X,Y pos of 4 corners*
0 Add a 4 corners polygon primitive as box body*
4,1,4,$2,$3,$4,$5,$6,$7,$8,$9,$2,$3,0*
0 Add four circle primitives for the rounded corners*
1,1,$1+$1,$2,$3*
1,1,$1+$1,$4,$5*
1,1,$1+$1,$6,$7*
1,1,$1+$1,$8,$9*
0 Add four rect primitives between the rounded corners*
20,1,$1+$1,$2,$3,$4,$5,0*
20,1,$1+$1,$4,$5,$6,$7,0*
20,1,$1+$1,$6,$7,$8,$9,0*
20,1,$1+$1,$8,$9,$2,$3,0*%
G04 Aperture macros list end*
%TA.AperFunction,ComponentPad*%
%ADD10C,4.400000*%
%TD*%
%TA.AperFunction,ComponentPad*%
%ADD11C,1.700000*%
%TD*%
%TA.AperFunction,ComponentPad*%
%ADD12O,1.700000X1.700000*%
%TD*%
%TA.AperFunction,ComponentPad*%
%ADD13RoundRect,0.250000X-0.600000X-0.725000X0.600000X-0.725000X0.600000X0.725000X-0.600000X0.725000X0*%
%TD*%
%TA.AperFunction,ComponentPad*%
%ADD14O,1.700000X1.950000*%
%TD*%
%TA.AperFunction,Conductor*%
%ADD15C,0.250000*%
%TD*%
G04 APERTURE END LIST*
D10*
%TO.P,REF\u002A\u002A,1*%
%TO.N,N/C*%
X86360000Y-74295000D03*
%TD*%
D11*
%TO.P,REF\u002A\u002A,1*%
%TO.N,N/C*%
X68072000Y-49530000D03*
D12*
%TO.P,REF\u002A\u002A,2*%
X68072000Y-52070000D03*
%TO.P,REF\u002A\u002A,3*%
X68072000Y-54610000D03*
%TO.P,REF\u002A\u002A,4*%
X68072000Y-57150000D03*
%TO.P,REF\u002A\u002A,5*%
X68072000Y-59690000D03*
%TO.P,REF\u002A\u002A,6*%
X68072000Y-62230000D03*
%TO.P,REF\u002A\u002A,7*%
X68072000Y-64770000D03*
%TO.P,REF\u002A\u002A,8*%
X68072000Y-67310000D03*
%TD*%
D10*
%TO.P,REF\u002A\u002A,1*%
%TO.N,N/C*%
X91440000Y-48895000D03*
%TD*%
D11*
%TO.P,REF\u002A\u002A,1*%
%TO.N,N/C*%
X83072000Y-49530000D03*
D12*
%TO.P,REF\u002A\u002A,2*%
X83072000Y-52070000D03*
%TO.P,REF\u002A\u002A,3*%
X83072000Y-54610000D03*
%TO.P,REF\u002A\u002A,4*%
X83072000Y-57150000D03*
%TO.P,REF\u002A\u002A,5*%
X83072000Y-59690000D03*
%TO.P,REF\u002A\u002A,6*%
X83072000Y-62230000D03*
%TO.P,REF\u002A\u002A,7*%
X83072000Y-64770000D03*
%TO.P,REF\u002A\u002A,8*%
X83072000Y-67310000D03*
%TD*%
D13*
%TO.P,JST_XH_B5B-XH-A_1x05,1*%
%TO.N,N/C*%
X94121000Y-67564000D03*
D14*
%TO.P,JST_XH_B5B-XH-A_1x05,2*%
X96621000Y-67564000D03*
%TO.P,JST_XH_B5B-XH-A_1x05,3*%
X99121000Y-67564000D03*
%TO.P,JST_XH_B5B-XH-A_1x05,4*%
X101621000Y-67564000D03*
%TO.P,JST_XH_B5B-XH-A_1x05,5*%
X104121000Y-67564000D03*
%TD*%
D15*
%TO.N,*%
X101621000Y-67564000D02*
X101621000Y-69829000D01*
X104121000Y-61576000D02*
X104121000Y-67564000D01*
X83072000Y-62230000D02*
X97042000Y-62230000D01*
X83072000Y-52070000D02*
X87517000Y-56515000D01*
X71882000Y-71120000D02*
X68072000Y-67310000D01*
X101621000Y-69829000D02*
X100330000Y-71120000D01*
X99060000Y-56515000D02*
X104121000Y-61576000D01*
X97042000Y-62230000D02*
X99121000Y-64309000D01*
X100330000Y-71120000D02*
X71882000Y-71120000D01*
X87517000Y-56515000D02*
X99060000Y-56515000D01*
X99121000Y-64309000D02*
X99121000Y-67564000D01*
%TD*%
%TA.AperFunction,NonConductor*%
G36*
X104790677Y-45739685D02*
G01*
X104811319Y-45756319D01*
X106643681Y-47588681D01*
X106677166Y-47650004D01*
X106680000Y-47676362D01*
X106680000Y-75513637D01*
X106660315Y-75580676D01*
X106643681Y-75601318D01*
X104811319Y-77433681D01*
X104749996Y-77467166D01*
X104723638Y-77470000D01*
X66726362Y-77470000D01*
X66659323Y-77450315D01*
X66638681Y-77433681D01*
X64806319Y-75601319D01*
X64772834Y-75539996D01*
X64770000Y-75513638D01*
X64770000Y-67310000D01*
X66716341Y-67310000D01*
X66736936Y-67545403D01*
X66736938Y-67545413D01*
X66798094Y-67773655D01*
X66798096Y-67773659D01*
X66798097Y-67773663D01*
X66868391Y-67924408D01*
X66897965Y-67987830D01*
X66897967Y-67987834D01*
X67006281Y-68142521D01*
X67033505Y-68181401D01*
X67200599Y-68348495D01*
X67251457Y-68384106D01*
X67394165Y-68484032D01*
X67394167Y-68484033D01*
X67394170Y-68484035D01*
X67608337Y-68583903D01*
X67836592Y-68645063D01*
X68024918Y-68661539D01*
X68071999Y-68665659D01*
X68072000Y-68665659D01*
X68072001Y-68665659D01*
X68111234Y-68662226D01*
X68307408Y-68645063D01*
X68407873Y-68618143D01*
X68477722Y-68619806D01*
X68527647Y-68650237D01*
X71381194Y-71503784D01*
X71391019Y-71516048D01*
X71391240Y-71515866D01*
X71396210Y-71521873D01*
X71396213Y-71521876D01*
X71396214Y-71521877D01*
X71446651Y-71569241D01*
X71467530Y-71590120D01*
X71473004Y-71594366D01*
X71477442Y-71598156D01*
X71511418Y-71630062D01*
X71511422Y-71630064D01*
X71528973Y-71639713D01*
X71545231Y-71650392D01*
X71561064Y-71662674D01*
X71583015Y-71672172D01*
X71603837Y-71681183D01*
X71609081Y-71683752D01*
X71649908Y-71706197D01*
X71669312Y-71711179D01*
X71687710Y-71717478D01*
X71706105Y-71725438D01*
X71752129Y-71732726D01*
X71757832Y-71733907D01*
X71802981Y-71745500D01*
X71823016Y-71745500D01*
X71842413Y-71747026D01*
X71862196Y-71750160D01*
X71908583Y-71745775D01*
X71914422Y-71745500D01*
X84912585Y-71745500D01*
X84979624Y-71765185D01*
X85025379Y-71817989D01*
X85035323Y-71887147D01*
X85006298Y-71950703D01*
X84976737Y-71975615D01*
X84905203Y-72018858D01*
X84823131Y-72068473D01*
X84565960Y-72269954D01*
X84334954Y-72500960D01*
X84133473Y-72758131D01*
X83964454Y-73037723D01*
X83964453Y-73037725D01*
X83830372Y-73335642D01*
X83830366Y-73335657D01*
X83733178Y-73647547D01*
X83674289Y-73968900D01*
X83654564Y-74295000D01*
X83674289Y-74621099D01*
X83733178Y-74942452D01*
X83830366Y-75254342D01*
X83830370Y-75254354D01*
X83830373Y-75254361D01*
X83964455Y-75552279D01*
X83994101Y-75601319D01*
X84133473Y-75831868D01*
X84334954Y-76089039D01*
X84565960Y-76320045D01*
X84823131Y-76521526D01*
X84823134Y-76521528D01*
X84823137Y-76521530D01*
X85102721Y-76690545D01*
X85400639Y-76824627D01*
X85400652Y-76824631D01*
X85400657Y-76824633D01*
X85712547Y-76921820D01*
X85712547Y-76921821D01*
X86033896Y-76980710D01*
X86360000Y-77000436D01*
X86686104Y-76980710D01*
X87007453Y-76921821D01*
X87319361Y-76824627D01*
X87617279Y-76690545D01*
X87896863Y-76521530D01*
X88154036Y-76320048D01*
X88385048Y-76089036D01*
X88586530Y-75831863D01*
X88755545Y-75552279D01*
X88889627Y-75254361D01*
X88986821Y-74942453D01*
X89045710Y-74621104D01*
X89065436Y-74295000D01*
X89045710Y-73968896D01*
X88986821Y-73647547D01*
X88889627Y-73335639D01*
X88755545Y-73037721D01*
X88586530Y-72758137D01*
X88586528Y-72758134D01*
X88586526Y-72758131D01*
X88385045Y-72500960D01*
X88154039Y-72269954D01*
X87896868Y-72068473D01*
X87890765Y-72064783D01*
X87743263Y-71975615D01*
X87696078Y-71924089D01*
X87684239Y-71855230D01*
X87711508Y-71790901D01*
X87769226Y-71751527D01*
X87807415Y-71745500D01*
X100247257Y-71745500D01*
X100262877Y-71747224D01*
X100262904Y-71746939D01*
X100270660Y-71747671D01*
X100270667Y-71747673D01*
X100339814Y-71745500D01*
X100369350Y-71745500D01*
X100376228Y-71744630D01*
X100382041Y-71744172D01*
X100428627Y-71742709D01*
X100447869Y-71737117D01*
X100466912Y-71733174D01*
X100486792Y-71730664D01*
X100530122Y-71713507D01*
X100535646Y-71711617D01*
X100539396Y-71710527D01*
X100580390Y-71698618D01*
X100597629Y-71688422D01*
X100615103Y-71679862D01*
X100633727Y-71672488D01*
X100633727Y-71672487D01*
X100633732Y-71672486D01*
X100671449Y-71645082D01*
X100676305Y-71641892D01*
X100716420Y-71618170D01*
X100730589Y-71603999D01*
X100745379Y-71591368D01*
X100761587Y-71579594D01*
X100791299Y-71543676D01*
X100795212Y-71539376D01*
X102004786Y-70329802D01*
X102017048Y-70319980D01*
X102016865Y-70319759D01*
X102022867Y-70314792D01*
X102022877Y-70314786D01*
X102070241Y-70264348D01*
X102091120Y-70243470D01*
X102095373Y-70237986D01*
X102099150Y-70233563D01*
X102131062Y-70199582D01*
X102140714Y-70182023D01*
X102151389Y-70165772D01*
X102163674Y-70149936D01*
X102182186Y-70107152D01*
X102184742Y-70101935D01*
X102207197Y-70061092D01*
X102212180Y-70041680D01*
X102218477Y-70023291D01*
X102226438Y-70004895D01*
X102233729Y-69958853D01*
X102234908Y-69953162D01*
X102246500Y-69908019D01*
X102246500Y-69887983D01*
X102248027Y-69868582D01*
X102251160Y-69848804D01*
X102246775Y-69802415D01*
X102246500Y-69796577D01*
X102246500Y-68964225D01*
X102266185Y-68897186D01*
X102299373Y-68862653D01*
X102492401Y-68727495D01*
X102659495Y-68560401D01*
X102769426Y-68403401D01*
X102824001Y-68359778D01*
X102893500Y-68352584D01*
X102955855Y-68384106D01*
X102972571Y-68403398D01*
X103029033Y-68484035D01*
X103082506Y-68560403D01*
X103167165Y-68645061D01*
X103249599Y-68727495D01*
X103292675Y-68757657D01*
X103443165Y-68863032D01*
X103443167Y-68863033D01*
X103443170Y-68863035D01*
X103657337Y-68962903D01*
X103657343Y-68962904D01*
X103657344Y-68962905D01*
X103698050Y-68973812D01*
X103885592Y-69024063D01*
X104062034Y-69039500D01*
X104120999Y-69044659D01*
X104121000Y-69044659D01*
X104121001Y-69044659D01*
X104179966Y-69039500D01*
X104356408Y-69024063D01*
X104584663Y-68962903D01*
X104798829Y-68863035D01*
X104992401Y-68727495D01*
X105159495Y-68560401D01*
X105295035Y-68366829D01*
X105394903Y-68152663D01*
X105456063Y-67924408D01*
X105471500Y-67747966D01*
X105471500Y-67380034D01*
X105456063Y-67203592D01*
X105394903Y-66975337D01*
X105295035Y-66761171D01*
X105282936Y-66743891D01*
X105159494Y-66567597D01*
X104992402Y-66400506D01*
X104992401Y-66400505D01*
X104808170Y-66271505D01*
X104799376Y-66265347D01*
X104755751Y-66210770D01*
X104746500Y-66163772D01*
X104746500Y-61658742D01*
X104748224Y-61643122D01*
X104747939Y-61643096D01*
X104748671Y-61635340D01*
X104748673Y-61635333D01*
X104746500Y-61566185D01*
X104746500Y-61536650D01*
X104745631Y-61529772D01*
X104745172Y-61523943D01*
X104743709Y-61477372D01*
X104738122Y-61458144D01*
X104734174Y-61439084D01*
X104731663Y-61419204D01*
X104714512Y-61375887D01*
X104712619Y-61370358D01*
X104699618Y-61325609D01*
X104699616Y-61325606D01*
X104689423Y-61308371D01*
X104680861Y-61290894D01*
X104673487Y-61272270D01*
X104673486Y-61272268D01*
X104646079Y-61234545D01*
X104642888Y-61229686D01*
X104619172Y-61189583D01*
X104619165Y-61189574D01*
X104605006Y-61175415D01*
X104592368Y-61160619D01*
X104580594Y-61144413D01*
X104544688Y-61114709D01*
X104540376Y-61110786D01*
X99560803Y-56131212D01*
X99550980Y-56118950D01*
X99550759Y-56119134D01*
X99545786Y-56113123D01*
X99544059Y-56111501D01*
X99495364Y-56065773D01*
X99484919Y-56055328D01*
X99474475Y-56044883D01*
X99468986Y-56040625D01*
X99464561Y-56036847D01*
X99430582Y-56004938D01*
X99430580Y-56004936D01*
X99430577Y-56004935D01*
X99413029Y-55995288D01*
X99396763Y-55984604D01*
X99380933Y-55972325D01*
X99338168Y-55953818D01*
X99332922Y-55951248D01*
X99292093Y-55928803D01*
X99292092Y-55928802D01*
X99272693Y-55923822D01*
X99254281Y-55917518D01*
X99235898Y-55909562D01*
X99235892Y-55909560D01*
X99189874Y-55902272D01*
X99184152Y-55901087D01*
X99139021Y-55889500D01*
X99139019Y-55889500D01*
X99118984Y-55889500D01*
X99099586Y-55887973D01*
X99092162Y-55886797D01*
X99079805Y-55884840D01*
X99079804Y-55884840D01*
X99033416Y-55889225D01*
X99027578Y-55889500D01*
X87827453Y-55889500D01*
X87760414Y-55869815D01*
X87739772Y-55853181D01*
X84412237Y-52525646D01*
X84378752Y-52464323D01*
X84380142Y-52405876D01*
X84407063Y-52305408D01*
X84427659Y-52070000D01*
X84407063Y-51834592D01*
X84345903Y-51606337D01*
X84246035Y-51392171D01*
X84110495Y-51198599D01*
X84110494Y-51198597D01*
X83943402Y-51031506D01*
X83943396Y-51031501D01*
X83757842Y-50901575D01*
X83714217Y-50846998D01*
X83707023Y-50777500D01*
X83738546Y-50715145D01*
X83757842Y-50698425D01*
X83780026Y-50682891D01*
X83943401Y-50568495D01*
X84110495Y-50401401D01*
X84246035Y-50207830D01*
X84345903Y-49993663D01*
X84407063Y-49765408D01*
X84427659Y-49530000D01*
X84407063Y-49294592D01*
X84345903Y-49066337D01*
X84266007Y-48895000D01*
X88734564Y-48895000D01*
X88754289Y-49221099D01*
X88813178Y-49542452D01*
X88910366Y-49854342D01*
X88910370Y-49854354D01*
X88910373Y-49854361D01*
X89044455Y-50152279D01*
X89195051Y-50401395D01*
X89213473Y-50431868D01*
X89414954Y-50689039D01*
X89645960Y-50920045D01*
X89903131Y-51121526D01*
X89903134Y-51121528D01*
X89903137Y-51121530D01*
X90182721Y-51290545D01*
X90480639Y-51424627D01*
X90480652Y-51424631D01*
X90480657Y-51424633D01*
X90792547Y-51521821D01*
X91113896Y-51580710D01*
X91440000Y-51600436D01*
X91766104Y-51580710D01*
X92087453Y-51521821D01*
X92399361Y-51424627D01*
X92697279Y-51290545D01*
X92976863Y-51121530D01*
X93234036Y-50920048D01*
X93465048Y-50689036D01*
X93666530Y-50431863D01*
X93835545Y-50152279D01*
X93969627Y-49854361D01*
X94066821Y-49542453D01*
X94125710Y-49221104D01*
X94145436Y-48895000D01*
X94125710Y-48568896D01*
X94066821Y-48247547D01*
X94066821Y-48247546D01*
X93969633Y-47935657D01*
X93969631Y-47935652D01*
X93969627Y-47935639D01*
X93835545Y-47637721D01*
X93666530Y-47358137D01*
X93666528Y-47358134D01*
X93666526Y-47358131D01*
X93465045Y-47100960D01*
X93234039Y-46869954D01*
X92976868Y-46668473D01*
X92948396Y-46651261D01*
X92697279Y-46499455D01*
X92399361Y-46365373D01*
X92399354Y-46365370D01*
X92399342Y-46365366D01*
X92087452Y-46268178D01*
X91766099Y-46209289D01*
X91466021Y-46191138D01*
X91440000Y-46189564D01*
X91439999Y-46189564D01*
X91113900Y-46209289D01*
X90792547Y-46268178D01*
X90480657Y-46365366D01*
X90480641Y-46365372D01*
X90480639Y-46365373D01*
X90290933Y-46450752D01*
X90182725Y-46499453D01*
X90182723Y-46499454D01*
X89903131Y-46668473D01*
X89645960Y-46869954D01*
X89414954Y-47100960D01*
X89213473Y-47358131D01*
X89044454Y-47637723D01*
X89044453Y-47637725D01*
X88910372Y-47935642D01*
X88910366Y-47935657D01*
X88813178Y-48247547D01*
X88754289Y-48568900D01*
X88734564Y-48895000D01*
X84266007Y-48895000D01*
X84246035Y-48852171D01*
X84110495Y-48658599D01*
X84110494Y-48658597D01*
X83943402Y-48491506D01*
X83943395Y-48491501D01*
X83749834Y-48355967D01*
X83749830Y-48355965D01*
X83749829Y-48355964D01*
X83535663Y-48256097D01*
X83535659Y-48256096D01*
X83535655Y-48256094D01*
X83307413Y-48194938D01*
X83307403Y-48194936D01*
X83072001Y-48174341D01*
X83071999Y-48174341D01*
X82836596Y-48194936D01*
X82836586Y-48194938D01*
X82608344Y-48256094D01*
X82608335Y-48256098D01*
X82394171Y-48355964D01*
X82394169Y-48355965D01*
X82200597Y-48491505D01*
X82033505Y-48658597D01*
X81897965Y-48852169D01*
X81897964Y-48852171D01*
X81798098Y-49066335D01*
X81798094Y-49066344D01*
X81736938Y-49294586D01*
X81736936Y-49294596D01*
X81716341Y-49529999D01*
X81716341Y-49530000D01*
X81736936Y-49765403D01*
X81736938Y-49765413D01*
X81798094Y-49993655D01*
X81798096Y-49993659D01*
X81798097Y-49993663D01*
X81872059Y-50152274D01*
X81897965Y-50207830D01*
X81897967Y-50207834D01*
X82033501Y-50401395D01*
X82033506Y-50401402D01*
X82200597Y-50568493D01*
X82200603Y-50568498D01*
X82386158Y-50698425D01*
X82429783Y-50753002D01*
X82436977Y-50822500D01*
X82405454Y-50884855D01*
X82386158Y-50901575D01*
X82200597Y-51031505D01*
X82033505Y-51198597D01*
X81897965Y-51392169D01*
X81897964Y-51392171D01*
X81798098Y-51606335D01*
X81798094Y-51606344D01*
X81736938Y-51834586D01*
X81736936Y-51834596D01*
X81716341Y-52069999D01*
X81716341Y-52070000D01*
X81736936Y-52305403D01*
X81736938Y-52305413D01*
X81798094Y-52533655D01*
X81798096Y-52533659D01*
X81798097Y-52533663D01*
X81897965Y-52747829D01*
X81897965Y-52747830D01*
X81897967Y-52747834D01*
X82033501Y-52941395D01*
X82033506Y-52941402D01*
X82200597Y-53108493D01*
X82200603Y-53108498D01*
X82386158Y-53238425D01*
X82429783Y-53293002D01*
X82436977Y-53362500D01*
X82405454Y-53424855D01*
X82386158Y-53441575D01*
X82200597Y-53571505D01*
X82033505Y-53738597D01*
X81897965Y-53932169D01*
X81897964Y-53932171D01*
X81798098Y-54146335D01*
X81798094Y-54146344D01*
X81736938Y-54374586D01*
X81736936Y-54374596D01*
X81716341Y-54609999D01*
X81716341Y-54610000D01*
X81736936Y-54845403D01*
X81736938Y-54845413D01*
X81798094Y-55073655D01*
X81798096Y-55073659D01*
X81798097Y-55073663D01*
X81897965Y-55287829D01*
X81897965Y-55287830D01*
X81897967Y-55287834D01*
X82033501Y-55481395D01*
X82033506Y-55481402D01*
X82200597Y-55648493D01*
X82200603Y-55648498D01*
X82386158Y-55778425D01*
X82429783Y-55833002D01*
X82436977Y-55902500D01*
X82405454Y-55964855D01*
X82386158Y-55981575D01*
X82200597Y-56111505D01*
X82033505Y-56278597D01*
X81897965Y-56472169D01*
X81897964Y-56472171D01*
X81798098Y-56686335D01*
X81798094Y-56686344D01*
X81736938Y-56914586D01*
X81736936Y-56914596D01*
X81716341Y-57149999D01*
X81716341Y-57150000D01*
X81736936Y-57385403D01*
X81736938Y-57385413D01*
X81798094Y-57613655D01*
X81798096Y-57613659D01*
X81798097Y-57613663D01*
X81897965Y-57827829D01*
X81897965Y-57827830D01*
X81897967Y-57827834D01*
X82033501Y-58021395D01*
X82033506Y-58021402D01*
X82200597Y-58188493D01*
X82200603Y-58188498D01*
X82386158Y-58318425D01*
X82429783Y-58373002D01*
X82436977Y-58442500D01*
X82405454Y-58504855D01*
X82386158Y-58521575D01*
X82200597Y-58651505D01*
X82033505Y-58818597D01*
X81897965Y-59012169D01*
X81897964Y-59012171D01*
X81798098Y-59226335D01*
X81798094Y-59226344D01*
X81736938Y-59454586D01*
X81736936Y-59454596D01*
X81716341Y-59689999D01*
X81716341Y-59690000D01*
X81736936Y-59925403D01*
X81736938Y-59925413D01*
X81798094Y-60153655D01*
X81798096Y-60153659D01*
X81798097Y-60153663D01*
X81897965Y-60367830D01*
X81897967Y-60367834D01*
X82033501Y-60561395D01*
X82033506Y-60561402D01*
X82200597Y-60728493D01*
X82200603Y-60728498D01*
X82386158Y-60858425D01*
X82429783Y-60913002D01*
X82436977Y-60982500D01*
X82405454Y-61044855D01*
X82386158Y-61061575D01*
X82200597Y-61191505D01*
X82033505Y-61358597D01*
X81897965Y-61552169D01*
X81897964Y-61552171D01*
X81798098Y-61766335D01*
X81798094Y-61766344D01*
X81736938Y-61994586D01*
X81736936Y-61994596D01*
X81716341Y-62229999D01*
X81716341Y-62230000D01*
X81736936Y-62465403D01*
X81736938Y-62465413D01*
X81798094Y-62693655D01*
X81798096Y-62693659D01*
X81798097Y-62693663D01*
X81873563Y-62855500D01*
X81897965Y-62907830D01*
X81897967Y-62907834D01*
X82006281Y-63062521D01*
X82033501Y-63101396D01*
X82033506Y-63101402D01*
X82200597Y-63268493D01*
X82200603Y-63268498D01*
X82386158Y-63398425D01*
X82429783Y-63453002D01*
X82436977Y-63522500D01*
X82405454Y-63584855D01*
X82386158Y-63601575D01*
X82200597Y-63731505D01*
X82033505Y-63898597D01*
X81897965Y-64092169D01*
X81897964Y-64092171D01*
X81798098Y-64306335D01*
X81798094Y-64306344D01*
X81736938Y-64534586D01*
X81736936Y-64534596D01*
X81716341Y-64769999D01*
X81716341Y-64770000D01*
X81736936Y-65005403D01*
X81736938Y-65005413D01*
X81798094Y-65233655D01*
X81798096Y-65233659D01*
X81798097Y-65233663D01*
X81897965Y-65447830D01*
X81897967Y-65447834D01*
X82033501Y-65641395D01*
X82033506Y-65641402D01*
X82200597Y-65808493D01*
X82200603Y-65808498D01*
X82386158Y-65938425D01*
X82429783Y-65993002D01*
X82436977Y-66062500D01*
X82405454Y-66124855D01*
X82386158Y-66141575D01*
X82200597Y-66271505D01*
X82033505Y-66438597D01*
X81897965Y-66632169D01*
X81897964Y-66632171D01*
X81798098Y-66846335D01*
X81798094Y-66846344D01*
X81736938Y-67074586D01*
X81736936Y-67074596D01*
X81716341Y-67309999D01*
X81716341Y-67310000D01*
X81736936Y-67545403D01*
X81736938Y-67545413D01*
X81798094Y-67773655D01*
X81798096Y-67773659D01*
X81798097Y-67773663D01*
X81868391Y-67924408D01*
X81897965Y-67987830D01*
X81897967Y-67987834D01*
X82006281Y-68142521D01*
X82033505Y-68181401D01*
X82200599Y-68348495D01*
X82251457Y-68384106D01*
X82394165Y-68484032D01*
X82394167Y-68484033D01*
X82394170Y-68484035D01*
X82608337Y-68583903D01*
X82836592Y-68645063D01*
X83024918Y-68661539D01*
X83071999Y-68665659D01*
X83072000Y-68665659D01*
X83072001Y-68665659D01*
X83111234Y-68662226D01*
X83307408Y-68645063D01*
X83535663Y-68583903D01*
X83749830Y-68484035D01*
X83943401Y-68348495D01*
X84110495Y-68181401D01*
X84246035Y-67987830D01*
X84345903Y-67773663D01*
X84407063Y-67545408D01*
X84427659Y-67310000D01*
X84407063Y-67074592D01*
X84345903Y-66846337D01*
X84246035Y-66632171D01*
X84200822Y-66567599D01*
X84110494Y-66438597D01*
X83943402Y-66271506D01*
X83943396Y-66271501D01*
X83757842Y-66141575D01*
X83714217Y-66086998D01*
X83707023Y-66017500D01*
X83738546Y-65955145D01*
X83757842Y-65938425D01*
X83780026Y-65922891D01*
X83943401Y-65808495D01*
X84110495Y-65641401D01*
X84246035Y-65447830D01*
X84345903Y-65233663D01*
X84407063Y-65005408D01*
X84427659Y-64770000D01*
X84407063Y-64534592D01*
X84345903Y-64306337D01*
X84246035Y-64092171D01*
X84222536Y-64058610D01*
X84110494Y-63898597D01*
X83943402Y-63731506D01*
X83943396Y-63731501D01*
X83757842Y-63601575D01*
X83714217Y-63546998D01*
X83707023Y-63477500D01*
X83738546Y-63415145D01*
X83757842Y-63398425D01*
X83780026Y-63382891D01*
X83943401Y-63268495D01*
X84110495Y-63101401D01*
X84245651Y-62908377D01*
X84300229Y-62864752D01*
X84347227Y-62855500D01*
X96731548Y-62855500D01*
X96798587Y-62875185D01*
X96819229Y-62891819D01*
X98459182Y-64531772D01*
X98492666Y-64593093D01*
X98495500Y-64619451D01*
X98495500Y-66163773D01*
X98475815Y-66230812D01*
X98442623Y-66265348D01*
X98249597Y-66400505D01*
X98082505Y-66567597D01*
X97972575Y-66724595D01*
X97917998Y-66768220D01*
X97848500Y-66775414D01*
X97786145Y-66743891D01*
X97769425Y-66724595D01*
X97659494Y-66567597D01*
X97492402Y-66400506D01*
X97492395Y-66400501D01*
X97298834Y-66264967D01*
X97298830Y-66264965D01*
X97246500Y-66240563D01*
X97084663Y-66165097D01*
X97084659Y-66165096D01*
X97084655Y-66165094D01*
X96856413Y-66103938D01*
X96856403Y-66103936D01*
X96621001Y-66083341D01*
X96620999Y-66083341D01*
X96385596Y-66103936D01*
X96385586Y-66103938D01*
X96157344Y-66165094D01*
X96157335Y-66165098D01*
X95943171Y-66264964D01*
X95943169Y-66264965D01*
X95749597Y-66400505D01*
X95602398Y-66547705D01*
X95541075Y-66581190D01*
X95471383Y-66576206D01*
X95415450Y-66534334D01*
X95409178Y-66525120D01*
X95313712Y-66370344D01*
X95189657Y-66246289D01*
X95189656Y-66246288D01*
X95096888Y-66189069D01*
X95040336Y-66154187D01*
X95040331Y-66154185D01*
X95038862Y-66153698D01*
X94873797Y-66099001D01*
X94873795Y-66099000D01*
X94771010Y-66088500D01*
X93470998Y-66088500D01*
X93470981Y-66088501D01*
X93368203Y-66099000D01*
X93368200Y-66099001D01*
X93201668Y-66154185D01*
X93201663Y-66154187D01*
X93052342Y-66246289D01*
X92928289Y-66370342D01*
X92836187Y-66519663D01*
X92836185Y-66519668D01*
X92817450Y-66576206D01*
X92781001Y-66686203D01*
X92781001Y-66686204D01*
X92781000Y-66686204D01*
X92770500Y-66788983D01*
X92770500Y-68339001D01*
X92770501Y-68339018D01*
X92781000Y-68441796D01*
X92781001Y-68441799D01*
X92826894Y-68580294D01*
X92836186Y-68608334D01*
X92928288Y-68757656D01*
X93052344Y-68881712D01*
X93201666Y-68973814D01*
X93368203Y-69028999D01*
X93470991Y-69039500D01*
X94771008Y-69039499D01*
X94873797Y-69028999D01*
X95040334Y-68973814D01*
X95189656Y-68881712D01*
X95313712Y-68757656D01*
X95405814Y-68608334D01*
X95405814Y-68608331D01*
X95409178Y-68602879D01*
X95461126Y-68556154D01*
X95530088Y-68544931D01*
X95594170Y-68572774D01*
X95602398Y-68580294D01*
X95749599Y-68727495D01*
X95792675Y-68757657D01*
X95943165Y-68863032D01*
X95943167Y-68863033D01*
X95943170Y-68863035D01*
X96157337Y-68962903D01*
X96157343Y-68962904D01*
X96157344Y-68962905D01*
X96198050Y-68973812D01*
X96385592Y-69024063D01*
X96562034Y-69039500D01*
X96620999Y-69044659D01*
X96621000Y-69044659D01*
X96621001Y-69044659D01*
X96679966Y-69039500D01*
X96856408Y-69024063D01*
X97084663Y-68962903D01*
X97298829Y-68863035D01*
X97492401Y-68727495D01*
X97659495Y-68560401D01*
X97769426Y-68403401D01*
X97824001Y-68359778D01*
X97893500Y-68352584D01*
X97955855Y-68384106D01*
X97972571Y-68403398D01*
X98029033Y-68484035D01*
X98082506Y-68560403D01*
X98167165Y-68645061D01*
X98249599Y-68727495D01*
X98292675Y-68757657D01*
X98443165Y-68863032D01*
X98443167Y-68863033D01*
X98443170Y-68863035D01*
X98657337Y-68962903D01*
X98657343Y-68962904D01*
X98657344Y-68962905D01*
X98698050Y-68973812D01*
X98885592Y-69024063D01*
X99062034Y-69039500D01*
X99120999Y-69044659D01*
X99121000Y-69044659D01*
X99121001Y-69044659D01*
X99179966Y-69039500D01*
X99356408Y-69024063D01*
X99584663Y-68962903D01*
X99798829Y-68863035D01*
X99992401Y-68727495D01*
X100159495Y-68560401D01*
X100269426Y-68403401D01*
X100324001Y-68359778D01*
X100393500Y-68352584D01*
X100455855Y-68384106D01*
X100472571Y-68403398D01*
X100529033Y-68484035D01*
X100582506Y-68560403D01*
X100667165Y-68645061D01*
X100749599Y-68727495D01*
X100942624Y-68862653D01*
X100986248Y-68917228D01*
X100995500Y-68964226D01*
X100995500Y-69518547D01*
X100975815Y-69585586D01*
X100959181Y-69606228D01*
X100107228Y-70458181D01*
X100045905Y-70491666D01*
X100019547Y-70494500D01*
X72192452Y-70494500D01*
X72125413Y-70474815D01*
X72104771Y-70458181D01*
X69412237Y-67765646D01*
X69378752Y-67704323D01*
X69380142Y-67645876D01*
X69407063Y-67545408D01*
X69427659Y-67310000D01*
X69407063Y-67074592D01*
X69345903Y-66846337D01*
X69246035Y-66632171D01*
X69200822Y-66567599D01*
X69110494Y-66438597D01*
X68943402Y-66271506D01*
X68943396Y-66271501D01*
X68757842Y-66141575D01*
X68714217Y-66086998D01*
X68707023Y-66017500D01*
X68738546Y-65955145D01*
X68757842Y-65938425D01*
X68780026Y-65922891D01*
X68943401Y-65808495D01*
X69110495Y-65641401D01*
X69246035Y-65447830D01*
X69345903Y-65233663D01*
X69407063Y-65005408D01*
X69427659Y-64770000D01*
X69407063Y-64534592D01*
X69345903Y-64306337D01*
X69246035Y-64092171D01*
X69222536Y-64058610D01*
X69110494Y-63898597D01*
X68943402Y-63731506D01*
X68943396Y-63731501D01*
X68757842Y-63601575D01*
X68714217Y-63546998D01*
X68707023Y-63477500D01*
X68738546Y-63415145D01*
X68757842Y-63398425D01*
X68780026Y-63382891D01*
X68943401Y-63268495D01*
X69110495Y-63101401D01*
X69246035Y-62907830D01*
X69345903Y-62693663D01*
X69407063Y-62465408D01*
X69427659Y-62230000D01*
X69407063Y-61994592D01*
X69345903Y-61766337D01*
X69246035Y-61552171D01*
X69245652Y-61551623D01*
X69110494Y-61358597D01*
X68943402Y-61191506D01*
X68943396Y-61191501D01*
X68757842Y-61061575D01*
X68714217Y-61006998D01*
X68707023Y-60937500D01*
X68738546Y-60875145D01*
X68757842Y-60858425D01*
X68780026Y-60842891D01*
X68943401Y-60728495D01*
X69110495Y-60561401D01*
X69246035Y-60367830D01*
X69345903Y-60153663D01*
X69407063Y-59925408D01*
X69427659Y-59690000D01*
X69407063Y-59454592D01*
X69345903Y-59226337D01*
X69246035Y-59012171D01*
X69110495Y-58818599D01*
X69110494Y-58818597D01*
X68943402Y-58651506D01*
X68943396Y-58651501D01*
X68757842Y-58521575D01*
X68714217Y-58466998D01*
X68707023Y-58397500D01*
X68738546Y-58335145D01*
X68757842Y-58318425D01*
X68780026Y-58302891D01*
X68943401Y-58188495D01*
X69110495Y-58021401D01*
X69246035Y-57827830D01*
X69345903Y-57613663D01*
X69407063Y-57385408D01*
X69427659Y-57150000D01*
X69427235Y-57145159D01*
X69413605Y-56989364D01*
X69407063Y-56914592D01*
X69345903Y-56686337D01*
X69246035Y-56472171D01*
X69110495Y-56278599D01*
X69110494Y-56278597D01*
X68943402Y-56111506D01*
X68943396Y-56111501D01*
X68757842Y-55981575D01*
X68714217Y-55926998D01*
X68707023Y-55857500D01*
X68738546Y-55795145D01*
X68757842Y-55778425D01*
X68780026Y-55762891D01*
X68943401Y-55648495D01*
X69110495Y-55481401D01*
X69246035Y-55287830D01*
X69345903Y-55073663D01*
X69407063Y-54845408D01*
X69427659Y-54610000D01*
X69427610Y-54609445D01*
X69419426Y-54515898D01*
X69407063Y-54374592D01*
X69345903Y-54146337D01*
X69246035Y-53932171D01*
X69110495Y-53738599D01*
X69110494Y-53738597D01*
X68943402Y-53571506D01*
X68943396Y-53571501D01*
X68757842Y-53441575D01*
X68714217Y-53386998D01*
X68707023Y-53317500D01*
X68738546Y-53255145D01*
X68757842Y-53238425D01*
X68780026Y-53222891D01*
X68943401Y-53108495D01*
X69110495Y-52941401D01*
X69246035Y-52747830D01*
X69345903Y-52533663D01*
X69407063Y-52305408D01*
X69427659Y-52070000D01*
X69407063Y-51834592D01*
X69345903Y-51606337D01*
X69246035Y-51392171D01*
X69110495Y-51198599D01*
X69110494Y-51198597D01*
X68943402Y-51031506D01*
X68943396Y-51031501D01*
X68757842Y-50901575D01*
X68714217Y-50846998D01*
X68707023Y-50777500D01*
X68738546Y-50715145D01*
X68757842Y-50698425D01*
X68780026Y-50682891D01*
X68943401Y-50568495D01*
X69110495Y-50401401D01*
X69246035Y-50207830D01*
X69345903Y-49993663D01*
X69407063Y-49765408D01*
X69427659Y-49530000D01*
X69407063Y-49294592D01*
X69345903Y-49066337D01*
X69246035Y-48852171D01*
X69110495Y-48658599D01*
X69110494Y-48658597D01*
X68943402Y-48491506D01*
X68943395Y-48491501D01*
X68749834Y-48355967D01*
X68749830Y-48355965D01*
X68749830Y-48355964D01*
X68535663Y-48256097D01*
X68535659Y-48256096D01*
X68535655Y-48256094D01*
X68307413Y-48194938D01*
X68307403Y-48194936D01*
X68072001Y-48174341D01*
X68071999Y-48174341D01*
X67836596Y-48194936D01*
X67836586Y-48194938D01*
X67608344Y-48256094D01*
X67608335Y-48256098D01*
X67394171Y-48355964D01*
X67394169Y-48355965D01*
X67200597Y-48491505D01*
X67033505Y-48658597D01*
X66897965Y-48852169D01*
X66897964Y-48852171D01*
X66798098Y-49066335D01*
X66798094Y-49066344D01*
X66736938Y-49294586D01*
X66736936Y-49294596D01*
X66716341Y-49529999D01*
X66716341Y-49530000D01*
X66736936Y-49765403D01*
X66736938Y-49765413D01*
X66798094Y-49993655D01*
X66798096Y-49993659D01*
X66798097Y-49993663D01*
X66872059Y-50152274D01*
X66897965Y-50207830D01*
X66897967Y-50207834D01*
X67033501Y-50401395D01*
X67033506Y-50401402D01*
X67200597Y-50568493D01*
X67200603Y-50568498D01*
X67386158Y-50698425D01*
X67429783Y-50753002D01*
X67436977Y-50822500D01*
X67405454Y-50884855D01*
X67386158Y-50901575D01*
X67200597Y-51031505D01*
X67033505Y-51198597D01*
X66897965Y-51392169D01*
X66897964Y-51392171D01*
X66798098Y-51606335D01*
X66798094Y-51606344D01*
X66736938Y-51834586D01*
X66736936Y-51834596D01*
X66716341Y-52069999D01*
X66716341Y-52070000D01*
X66736936Y-52305403D01*
X66736938Y-52305413D01*
X66798094Y-52533655D01*
X66798096Y-52533659D01*
X66798097Y-52533663D01*
X66897965Y-52747829D01*
X66897965Y-52747830D01*
X66897967Y-52747834D01*
X67033501Y-52941395D01*
X67033506Y-52941402D01*
X67200597Y-53108493D01*
X67200603Y-53108498D01*
X67386158Y-53238425D01*
X67429783Y-53293002D01*
X67436977Y-53362500D01*
X67405454Y-53424855D01*
X67386158Y-53441575D01*
X67200597Y-53571505D01*
X67033505Y-53738597D01*
X66897965Y-53932169D01*
X66897964Y-53932171D01*
X66798098Y-54146335D01*
X66798094Y-54146344D01*
X66736938Y-54374586D01*
X66736936Y-54374596D01*
X66716341Y-54609999D01*
X66716341Y-54610000D01*
X66736936Y-54845403D01*
X66736938Y-54845413D01*
X66798094Y-55073655D01*
X66798096Y-55073659D01*
X66798097Y-55073663D01*
X66897965Y-55287829D01*
X66897965Y-55287830D01*
X66897967Y-55287834D01*
X67033501Y-55481395D01*
X67033506Y-55481402D01*
X67200597Y-55648493D01*
X67200603Y-55648498D01*
X67386158Y-55778425D01*
X67429783Y-55833002D01*
X67436977Y-55902500D01*
X67405454Y-55964855D01*
X67386158Y-55981575D01*
X67200597Y-56111505D01*
X67033505Y-56278597D01*
X66897965Y-56472169D01*
X66897964Y-56472171D01*
X66798098Y-56686335D01*
X66798094Y-56686344D01*
X66736938Y-56914586D01*
X66736936Y-56914596D01*
X66716341Y-57149999D01*
X66716341Y-57150000D01*
X66736936Y-57385403D01*
X66736938Y-57385413D01*
X66798094Y-57613655D01*
X66798096Y-57613659D01*
X66798097Y-57613663D01*
X66897965Y-57827829D01*
X66897965Y-57827830D01*
X66897967Y-57827834D01*
X67033501Y-58021395D01*
X67033506Y-58021402D01*
X67200597Y-58188493D01*
X67200603Y-58188498D01*
X67386158Y-58318425D01*
X67429783Y-58373002D01*
X67436977Y-58442500D01*
X67405454Y-58504855D01*
X67386158Y-58521575D01*
X67200597Y-58651505D01*
X67033505Y-58818597D01*
X66897965Y-59012169D01*
X66897964Y-59012171D01*
X66798098Y-59226335D01*
X66798094Y-59226344D01*
X66736938Y-59454586D01*
X66736936Y-59454596D01*
X66716341Y-59689999D01*
X66716341Y-59690000D01*
X66736936Y-59925403D01*
X66736938Y-59925413D01*
X66798094Y-60153655D01*
X66798096Y-60153659D01*
X66798097Y-60153663D01*
X66897965Y-60367829D01*
X66897965Y-60367830D01*
X66897967Y-60367834D01*
X67033501Y-60561395D01*
X67033506Y-60561402D01*
X67200597Y-60728493D01*
X67200603Y-60728498D01*
X67386158Y-60858425D01*
X67429783Y-60913002D01*
X67436977Y-60982500D01*
X67405454Y-61044855D01*
X67386158Y-61061575D01*
X67200597Y-61191505D01*
X67033505Y-61358597D01*
X66897965Y-61552169D01*
X66897964Y-61552171D01*
X66798098Y-61766335D01*
X66798094Y-61766344D01*
X66736938Y-61994586D01*
X66736936Y-61994596D01*
X66716341Y-62229999D01*
X66716341Y-62230000D01*
X66736936Y-62465403D01*
X66736938Y-62465413D01*
X66798094Y-62693655D01*
X66798096Y-62693659D01*
X66798097Y-62693663D01*
X66873563Y-62855500D01*
X66897965Y-62907830D01*
X66897967Y-62907834D01*
X67006281Y-63062521D01*
X67033501Y-63101396D01*
X67033506Y-63101402D01*
X67200597Y-63268493D01*
X67200603Y-63268498D01*
X67386158Y-63398425D01*
X67429783Y-63453002D01*
X67436977Y-63522500D01*
X67405454Y-63584855D01*
X67386158Y-63601575D01*
X67200597Y-63731505D01*
X67033505Y-63898597D01*
X66897965Y-64092169D01*
X66897964Y-64092171D01*
X66798098Y-64306335D01*
X66798094Y-64306344D01*
X66736938Y-64534586D01*
X66736936Y-64534596D01*
X66716341Y-64769999D01*
X66716341Y-64770000D01*
X66736936Y-65005403D01*
X66736938Y-65005413D01*
X66798094Y-65233655D01*
X66798096Y-65233659D01*
X66798097Y-65233663D01*
X66897965Y-65447829D01*
X66897965Y-65447830D01*
X66897967Y-65447834D01*
X67033501Y-65641395D01*
X67033506Y-65641402D01*
X67200597Y-65808493D01*
X67200603Y-65808498D01*
X67386158Y-65938425D01*
X67429783Y-65993002D01*
X67436977Y-66062500D01*
X67405454Y-66124855D01*
X67386158Y-66141575D01*
X67200597Y-66271505D01*
X67033505Y-66438597D01*
X66897965Y-66632169D01*
X66897964Y-66632171D01*
X66798098Y-66846335D01*
X66798094Y-66846344D01*
X66736938Y-67074586D01*
X66736936Y-67074596D01*
X66716341Y-67309999D01*
X66716341Y-67310000D01*
X64770000Y-67310000D01*
X64770000Y-47676362D01*
X64789685Y-47609323D01*
X64806319Y-47588681D01*
X66638681Y-45756319D01*
X66700004Y-45722834D01*
X66726362Y-45720000D01*
X104723638Y-45720000D01*
X104790677Y-45739685D01*
G37*
%TD.AperFunction*%
%TA.AperFunction,NonConductor*%
G36*
X84632862Y-54515898D02*
G01*
X84639325Y-54521916D01*
X85895834Y-55778425D01*
X87016197Y-56898788D01*
X87026022Y-56911051D01*
X87026243Y-56910869D01*
X87031214Y-56916878D01*
X87057217Y-56941295D01*
X87081635Y-56964226D01*
X87102529Y-56985120D01*
X87108011Y-56989373D01*
X87112443Y-56993157D01*
X87146418Y-57025062D01*
X87163976Y-57034714D01*
X87180235Y-57045395D01*
X87196064Y-57057673D01*
X87238838Y-57076182D01*
X87244056Y-57078738D01*
X87284908Y-57101197D01*
X87304316Y-57106180D01*
X87322717Y-57112480D01*
X87341104Y-57120437D01*
X87384488Y-57127308D01*
X87387119Y-57127725D01*
X87392839Y-57128909D01*
X87437981Y-57140500D01*
X87458016Y-57140500D01*
X87477414Y-57142026D01*
X87497194Y-57145159D01*
X87497195Y-57145160D01*
X87497195Y-57145159D01*
X87497196Y-57145160D01*
X87543583Y-57140775D01*
X87549422Y-57140500D01*
X98749548Y-57140500D01*
X98816587Y-57160185D01*
X98837228Y-57176818D01*
X103459182Y-61798772D01*
X103492666Y-61860093D01*
X103495500Y-61886451D01*
X103495500Y-66163773D01*
X103475815Y-66230812D01*
X103442623Y-66265348D01*
X103249597Y-66400505D01*
X103082505Y-66567597D01*
X102972575Y-66724595D01*
X102917998Y-66768220D01*
X102848500Y-66775414D01*
X102786145Y-66743891D01*
X102769425Y-66724595D01*
X102659494Y-66567597D01*
X102492402Y-66400506D01*
X102492395Y-66400501D01*
X102298834Y-66264967D01*
X102298830Y-66264965D01*
X102246500Y-66240563D01*
X102084663Y-66165097D01*
X102084659Y-66165096D01*
X102084655Y-66165094D01*
X101856413Y-66103938D01*
X101856403Y-66103936D01*
X101621001Y-66083341D01*
X101620999Y-66083341D01*
X101385596Y-66103936D01*
X101385586Y-66103938D01*
X101157344Y-66165094D01*
X101157335Y-66165098D01*
X100943171Y-66264964D01*
X100943169Y-66264965D01*
X100749597Y-66400505D01*
X100582505Y-66567597D01*
X100472575Y-66724595D01*
X100417998Y-66768220D01*
X100348500Y-66775414D01*
X100286145Y-66743891D01*
X100269425Y-66724595D01*
X100159494Y-66567597D01*
X99992402Y-66400506D01*
X99992401Y-66400505D01*
X99808170Y-66271505D01*
X99799376Y-66265347D01*
X99755751Y-66210770D01*
X99746500Y-66163772D01*
X99746500Y-64391742D01*
X99748224Y-64376122D01*
X99747939Y-64376096D01*
X99748671Y-64368340D01*
X99748673Y-64368333D01*
X99746500Y-64299185D01*
X99746500Y-64269650D01*
X99745631Y-64262772D01*
X99745172Y-64256943D01*
X99743709Y-64210372D01*
X99738122Y-64191144D01*
X99734174Y-64172084D01*
X99731663Y-64152204D01*
X99714512Y-64108887D01*
X99712619Y-64103358D01*
X99699618Y-64058609D01*
X99699616Y-64058606D01*
X99689423Y-64041371D01*
X99680861Y-64023894D01*
X99673487Y-64005270D01*
X99673486Y-64005268D01*
X99646079Y-63967545D01*
X99642888Y-63962686D01*
X99619172Y-63922583D01*
X99619165Y-63922574D01*
X99605006Y-63908415D01*
X99592368Y-63893619D01*
X99580594Y-63877413D01*
X99544688Y-63847709D01*
X99540376Y-63843786D01*
X97542803Y-61846212D01*
X97532980Y-61833950D01*
X97532759Y-61834134D01*
X97527786Y-61828123D01*
X97527785Y-61828123D01*
X97477364Y-61780773D01*
X97462926Y-61766335D01*
X97456475Y-61759883D01*
X97450986Y-61755625D01*
X97446561Y-61751847D01*
X97412582Y-61719938D01*
X97412580Y-61719936D01*
X97412577Y-61719935D01*
X97395029Y-61710288D01*
X97378763Y-61699604D01*
X97362933Y-61687325D01*
X97320168Y-61668818D01*
X97314922Y-61666248D01*
X97274093Y-61643803D01*
X97274092Y-61643802D01*
X97254693Y-61638822D01*
X97236281Y-61632518D01*
X97217898Y-61624562D01*
X97217892Y-61624560D01*
X97171874Y-61617272D01*
X97166152Y-61616087D01*
X97121021Y-61604500D01*
X97121019Y-61604500D01*
X97100984Y-61604500D01*
X97081586Y-61602973D01*
X97074162Y-61601797D01*
X97061805Y-61599840D01*
X97061804Y-61599840D01*
X97015416Y-61604225D01*
X97009578Y-61604500D01*
X84347227Y-61604500D01*
X84280188Y-61584815D01*
X84245652Y-61551623D01*
X84110494Y-61358597D01*
X83943402Y-61191506D01*
X83943396Y-61191501D01*
X83757842Y-61061575D01*
X83714217Y-61006998D01*
X83707023Y-60937500D01*
X83738546Y-60875145D01*
X83757842Y-60858425D01*
X83780026Y-60842891D01*
X83943401Y-60728495D01*
X84110495Y-60561401D01*
X84246035Y-60367830D01*
X84345903Y-60153663D01*
X84407063Y-59925408D01*
X84427659Y-59690000D01*
X84407063Y-59454592D01*
X84345903Y-59226337D01*
X84246035Y-59012171D01*
X84110495Y-58818599D01*
X84110494Y-58818597D01*
X83943402Y-58651506D01*
X83943396Y-58651501D01*
X83757842Y-58521575D01*
X83714217Y-58466998D01*
X83707023Y-58397500D01*
X83738546Y-58335145D01*
X83757842Y-58318425D01*
X83780026Y-58302891D01*
X83943401Y-58188495D01*
X84110495Y-58021401D01*
X84246035Y-57827830D01*
X84345903Y-57613663D01*
X84407063Y-57385408D01*
X84427659Y-57150000D01*
X84427235Y-57145159D01*
X84413605Y-56989364D01*
X84407063Y-56914592D01*
X84345903Y-56686337D01*
X84246035Y-56472171D01*
X84110495Y-56278599D01*
X84110494Y-56278597D01*
X83943402Y-56111506D01*
X83943396Y-56111501D01*
X83757842Y-55981575D01*
X83714217Y-55926998D01*
X83707023Y-55857500D01*
X83738546Y-55795145D01*
X83757842Y-55778425D01*
X83780026Y-55762891D01*
X83943401Y-55648495D01*
X84110495Y-55481401D01*
X84246035Y-55287830D01*
X84345903Y-55073663D01*
X84407063Y-54845408D01*
X84427659Y-54610000D01*
X84427659Y-54609999D01*
X84427659Y-54609611D01*
X84427707Y-54609445D01*
X84428131Y-54604606D01*
X84429103Y-54604691D01*
X84447344Y-54542572D01*
X84500148Y-54496817D01*
X84569306Y-54486873D01*
X84632862Y-54515898D01*
G37*
%TD.AperFunction*%
M02*
