%TF.GenerationSoftware,KiCad,Pcbnew,7.0.6-0*%
%TF.CreationDate,2023-11-30T09:39:26+00:00*%
%TF.ProjectId,TPoS Printer,54506f53-2050-4726-996e-7465722e6b69,rev?*%
%TF.SameCoordinates,Original*%
%TF.FileFunction,Legend,Bot*%
%TF.FilePolarity,Positive*%
%FSLAX46Y46*%
G04 Gerber Fmt 4.6, Leading zero omitted, Abs format (unit mm)*
G04 Created by KiCad (PCBNEW 7.0.6-0) date 2023-11-30 09:39:26*
%MOMM*%
%LPD*%
G01*
G04 APERTURE LIST*
%ADD10C,0.300000*%
G04 APERTURE END LIST*
D10*
X80568346Y-66782542D02*
X80454060Y-66782542D01*
X80454060Y-66782542D02*
X80339774Y-66839685D01*
X80339774Y-66839685D02*
X80282632Y-66896828D01*
X80282632Y-66896828D02*
X80225489Y-67011114D01*
X80225489Y-67011114D02*
X80168346Y-67239685D01*
X80168346Y-67239685D02*
X80168346Y-67525400D01*
X80168346Y-67525400D02*
X80225489Y-67753971D01*
X80225489Y-67753971D02*
X80282632Y-67868257D01*
X80282632Y-67868257D02*
X80339774Y-67925400D01*
X80339774Y-67925400D02*
X80454060Y-67982542D01*
X80454060Y-67982542D02*
X80568346Y-67982542D01*
X80568346Y-67982542D02*
X80682632Y-67925400D01*
X80682632Y-67925400D02*
X80739774Y-67868257D01*
X80739774Y-67868257D02*
X80796917Y-67753971D01*
X80796917Y-67753971D02*
X80854060Y-67525400D01*
X80854060Y-67525400D02*
X80854060Y-67239685D01*
X80854060Y-67239685D02*
X80796917Y-67011114D01*
X80796917Y-67011114D02*
X80739774Y-66896828D01*
X80739774Y-66896828D02*
X80682632Y-66839685D01*
X80682632Y-66839685D02*
X80568346Y-66782542D01*
X80168346Y-65442542D02*
X80854060Y-65442542D01*
X80511203Y-65442542D02*
X80511203Y-64242542D01*
X80511203Y-64242542D02*
X80625489Y-64413971D01*
X80625489Y-64413971D02*
X80739774Y-64528257D01*
X80739774Y-64528257D02*
X80854060Y-64585400D01*
X71259060Y-66796828D02*
X71201917Y-66739685D01*
X71201917Y-66739685D02*
X71087632Y-66682542D01*
X71087632Y-66682542D02*
X70801917Y-66682542D01*
X70801917Y-66682542D02*
X70687632Y-66739685D01*
X70687632Y-66739685D02*
X70630489Y-66796828D01*
X70630489Y-66796828D02*
X70573346Y-66911114D01*
X70573346Y-66911114D02*
X70573346Y-67025400D01*
X70573346Y-67025400D02*
X70630489Y-67196828D01*
X70630489Y-67196828D02*
X71316203Y-67882542D01*
X71316203Y-67882542D02*
X70573346Y-67882542D01*
X69430489Y-67882542D02*
X70116203Y-67882542D01*
X69773346Y-67882542D02*
X69773346Y-66682542D01*
X69773346Y-66682542D02*
X69887632Y-66853971D01*
X69887632Y-66853971D02*
X70001917Y-66968257D01*
X70001917Y-66968257D02*
X70116203Y-67025400D01*
X79924631Y-49002542D02*
X80496059Y-49002542D01*
X80496059Y-49002542D02*
X80553202Y-49573971D01*
X80553202Y-49573971D02*
X80496059Y-49516828D01*
X80496059Y-49516828D02*
X80381774Y-49459685D01*
X80381774Y-49459685D02*
X80096059Y-49459685D01*
X80096059Y-49459685D02*
X79981774Y-49516828D01*
X79981774Y-49516828D02*
X79924631Y-49573971D01*
X79924631Y-49573971D02*
X79867488Y-49688257D01*
X79867488Y-49688257D02*
X79867488Y-49973971D01*
X79867488Y-49973971D02*
X79924631Y-50088257D01*
X79924631Y-50088257D02*
X79981774Y-50145400D01*
X79981774Y-50145400D02*
X80096059Y-50202542D01*
X80096059Y-50202542D02*
X80381774Y-50202542D01*
X80381774Y-50202542D02*
X80496059Y-50145400D01*
X80496059Y-50145400D02*
X80553202Y-50088257D01*
X79524631Y-49002542D02*
X79124631Y-50202542D01*
X79124631Y-50202542D02*
X78724631Y-49002542D01*
X70300203Y-53982542D02*
X69500203Y-53982542D01*
X69500203Y-53982542D02*
X70014489Y-55182542D01*
X80282632Y-57022542D02*
X80282632Y-57822542D01*
X80568346Y-56565400D02*
X80854060Y-57422542D01*
X80854060Y-57422542D02*
X80111203Y-57422542D01*
X70573346Y-62802542D02*
X71259060Y-62802542D01*
X70916203Y-62802542D02*
X70916203Y-61602542D01*
X70916203Y-61602542D02*
X71030489Y-61773971D01*
X71030489Y-61773971D02*
X71144774Y-61888257D01*
X71144774Y-61888257D02*
X71259060Y-61945400D01*
X69830489Y-61602542D02*
X69716203Y-61602542D01*
X69716203Y-61602542D02*
X69601917Y-61659685D01*
X69601917Y-61659685D02*
X69544775Y-61716828D01*
X69544775Y-61716828D02*
X69487632Y-61831114D01*
X69487632Y-61831114D02*
X69430489Y-62059685D01*
X69430489Y-62059685D02*
X69430489Y-62345400D01*
X69430489Y-62345400D02*
X69487632Y-62573971D01*
X69487632Y-62573971D02*
X69544775Y-62688257D01*
X69544775Y-62688257D02*
X69601917Y-62745400D01*
X69601917Y-62745400D02*
X69716203Y-62802542D01*
X69716203Y-62802542D02*
X69830489Y-62802542D01*
X69830489Y-62802542D02*
X69944775Y-62745400D01*
X69944775Y-62745400D02*
X70001917Y-62688257D01*
X70001917Y-62688257D02*
X70059060Y-62573971D01*
X70059060Y-62573971D02*
X70116203Y-62345400D01*
X70116203Y-62345400D02*
X70116203Y-62059685D01*
X70116203Y-62059685D02*
X70059060Y-61831114D01*
X70059060Y-61831114D02*
X70001917Y-61716828D01*
X70001917Y-61716828D02*
X69944775Y-61659685D01*
X69944775Y-61659685D02*
X69830489Y-61602542D01*
X71259060Y-64256828D02*
X71201917Y-64199685D01*
X71201917Y-64199685D02*
X71087632Y-64142542D01*
X71087632Y-64142542D02*
X70801917Y-64142542D01*
X70801917Y-64142542D02*
X70687632Y-64199685D01*
X70687632Y-64199685D02*
X70630489Y-64256828D01*
X70630489Y-64256828D02*
X70573346Y-64371114D01*
X70573346Y-64371114D02*
X70573346Y-64485400D01*
X70573346Y-64485400D02*
X70630489Y-64656828D01*
X70630489Y-64656828D02*
X71316203Y-65342542D01*
X71316203Y-65342542D02*
X70573346Y-65342542D01*
X69830489Y-64142542D02*
X69716203Y-64142542D01*
X69716203Y-64142542D02*
X69601917Y-64199685D01*
X69601917Y-64199685D02*
X69544775Y-64256828D01*
X69544775Y-64256828D02*
X69487632Y-64371114D01*
X69487632Y-64371114D02*
X69430489Y-64599685D01*
X69430489Y-64599685D02*
X69430489Y-64885400D01*
X69430489Y-64885400D02*
X69487632Y-65113971D01*
X69487632Y-65113971D02*
X69544775Y-65228257D01*
X69544775Y-65228257D02*
X69601917Y-65285400D01*
X69601917Y-65285400D02*
X69716203Y-65342542D01*
X69716203Y-65342542D02*
X69830489Y-65342542D01*
X69830489Y-65342542D02*
X69944775Y-65285400D01*
X69944775Y-65285400D02*
X70001917Y-65228257D01*
X70001917Y-65228257D02*
X70059060Y-65113971D01*
X70059060Y-65113971D02*
X70116203Y-64885400D01*
X70116203Y-64885400D02*
X70116203Y-64599685D01*
X70116203Y-64599685D02*
X70059060Y-64371114D01*
X70059060Y-64371114D02*
X70001917Y-64256828D01*
X70001917Y-64256828D02*
X69944775Y-64199685D01*
X69944775Y-64199685D02*
X69830489Y-64142542D01*
X69671632Y-51442542D02*
X69900203Y-51442542D01*
X69900203Y-51442542D02*
X70014489Y-51499685D01*
X70014489Y-51499685D02*
X70071632Y-51556828D01*
X70071632Y-51556828D02*
X70185917Y-51728257D01*
X70185917Y-51728257D02*
X70243060Y-51956828D01*
X70243060Y-51956828D02*
X70243060Y-52413971D01*
X70243060Y-52413971D02*
X70185917Y-52528257D01*
X70185917Y-52528257D02*
X70128774Y-52585400D01*
X70128774Y-52585400D02*
X70014489Y-52642542D01*
X70014489Y-52642542D02*
X69785917Y-52642542D01*
X69785917Y-52642542D02*
X69671632Y-52585400D01*
X69671632Y-52585400D02*
X69614489Y-52528257D01*
X69614489Y-52528257D02*
X69557346Y-52413971D01*
X69557346Y-52413971D02*
X69557346Y-52128257D01*
X69557346Y-52128257D02*
X69614489Y-52013971D01*
X69614489Y-52013971D02*
X69671632Y-51956828D01*
X69671632Y-51956828D02*
X69785917Y-51899685D01*
X69785917Y-51899685D02*
X70014489Y-51899685D01*
X70014489Y-51899685D02*
X70128774Y-51956828D01*
X70128774Y-51956828D02*
X70185917Y-52013971D01*
X70185917Y-52013971D02*
X70243060Y-52128257D01*
X81118345Y-54082542D02*
X80375488Y-54082542D01*
X80375488Y-54082542D02*
X80775488Y-54539685D01*
X80775488Y-54539685D02*
X80604059Y-54539685D01*
X80604059Y-54539685D02*
X80489774Y-54596828D01*
X80489774Y-54596828D02*
X80432631Y-54653971D01*
X80432631Y-54653971D02*
X80375488Y-54768257D01*
X80375488Y-54768257D02*
X80375488Y-55053971D01*
X80375488Y-55053971D02*
X80432631Y-55168257D01*
X80432631Y-55168257D02*
X80489774Y-55225400D01*
X80489774Y-55225400D02*
X80604059Y-55282542D01*
X80604059Y-55282542D02*
X80946916Y-55282542D01*
X80946916Y-55282542D02*
X81061202Y-55225400D01*
X81061202Y-55225400D02*
X81118345Y-55168257D01*
X79861202Y-55168257D02*
X79804059Y-55225400D01*
X79804059Y-55225400D02*
X79861202Y-55282542D01*
X79861202Y-55282542D02*
X79918345Y-55225400D01*
X79918345Y-55225400D02*
X79861202Y-55168257D01*
X79861202Y-55168257D02*
X79861202Y-55282542D01*
X79404059Y-54082542D02*
X78661202Y-54082542D01*
X78661202Y-54082542D02*
X79061202Y-54539685D01*
X79061202Y-54539685D02*
X78889773Y-54539685D01*
X78889773Y-54539685D02*
X78775488Y-54596828D01*
X78775488Y-54596828D02*
X78718345Y-54653971D01*
X78718345Y-54653971D02*
X78661202Y-54768257D01*
X78661202Y-54768257D02*
X78661202Y-55053971D01*
X78661202Y-55053971D02*
X78718345Y-55168257D01*
X78718345Y-55168257D02*
X78775488Y-55225400D01*
X78775488Y-55225400D02*
X78889773Y-55282542D01*
X78889773Y-55282542D02*
X79232630Y-55282542D01*
X79232630Y-55282542D02*
X79346916Y-55225400D01*
X79346916Y-55225400D02*
X79404059Y-55168257D01*
X80911203Y-59162542D02*
X80168346Y-59162542D01*
X80168346Y-59162542D02*
X80568346Y-59619685D01*
X80568346Y-59619685D02*
X80396917Y-59619685D01*
X80396917Y-59619685D02*
X80282632Y-59676828D01*
X80282632Y-59676828D02*
X80225489Y-59733971D01*
X80225489Y-59733971D02*
X80168346Y-59848257D01*
X80168346Y-59848257D02*
X80168346Y-60133971D01*
X80168346Y-60133971D02*
X80225489Y-60248257D01*
X80225489Y-60248257D02*
X80282632Y-60305400D01*
X80282632Y-60305400D02*
X80396917Y-60362542D01*
X80396917Y-60362542D02*
X80739774Y-60362542D01*
X80739774Y-60362542D02*
X80854060Y-60305400D01*
X80854060Y-60305400D02*
X80911203Y-60248257D01*
X80854060Y-61816828D02*
X80796917Y-61759685D01*
X80796917Y-61759685D02*
X80682632Y-61702542D01*
X80682632Y-61702542D02*
X80396917Y-61702542D01*
X80396917Y-61702542D02*
X80282632Y-61759685D01*
X80282632Y-61759685D02*
X80225489Y-61816828D01*
X80225489Y-61816828D02*
X80168346Y-61931114D01*
X80168346Y-61931114D02*
X80168346Y-62045400D01*
X80168346Y-62045400D02*
X80225489Y-62216828D01*
X80225489Y-62216828D02*
X80911203Y-62902542D01*
X80911203Y-62902542D02*
X80168346Y-62902542D01*
X70014489Y-57036828D02*
X70128774Y-56979685D01*
X70128774Y-56979685D02*
X70185917Y-56922542D01*
X70185917Y-56922542D02*
X70243060Y-56808257D01*
X70243060Y-56808257D02*
X70243060Y-56751114D01*
X70243060Y-56751114D02*
X70185917Y-56636828D01*
X70185917Y-56636828D02*
X70128774Y-56579685D01*
X70128774Y-56579685D02*
X70014489Y-56522542D01*
X70014489Y-56522542D02*
X69785917Y-56522542D01*
X69785917Y-56522542D02*
X69671632Y-56579685D01*
X69671632Y-56579685D02*
X69614489Y-56636828D01*
X69614489Y-56636828D02*
X69557346Y-56751114D01*
X69557346Y-56751114D02*
X69557346Y-56808257D01*
X69557346Y-56808257D02*
X69614489Y-56922542D01*
X69614489Y-56922542D02*
X69671632Y-56979685D01*
X69671632Y-56979685D02*
X69785917Y-57036828D01*
X69785917Y-57036828D02*
X70014489Y-57036828D01*
X70014489Y-57036828D02*
X70128774Y-57093971D01*
X70128774Y-57093971D02*
X70185917Y-57151114D01*
X70185917Y-57151114D02*
X70243060Y-57265400D01*
X70243060Y-57265400D02*
X70243060Y-57493971D01*
X70243060Y-57493971D02*
X70185917Y-57608257D01*
X70185917Y-57608257D02*
X70128774Y-57665400D01*
X70128774Y-57665400D02*
X70014489Y-57722542D01*
X70014489Y-57722542D02*
X69785917Y-57722542D01*
X69785917Y-57722542D02*
X69671632Y-57665400D01*
X69671632Y-57665400D02*
X69614489Y-57608257D01*
X69614489Y-57608257D02*
X69557346Y-57493971D01*
X69557346Y-57493971D02*
X69557346Y-57265400D01*
X69557346Y-57265400D02*
X69614489Y-57151114D01*
X69614489Y-57151114D02*
X69671632Y-57093971D01*
X69671632Y-57093971D02*
X69785917Y-57036828D01*
X69614489Y-48902542D02*
X70185917Y-48902542D01*
X70185917Y-48902542D02*
X70243060Y-49473971D01*
X70243060Y-49473971D02*
X70185917Y-49416828D01*
X70185917Y-49416828D02*
X70071632Y-49359685D01*
X70071632Y-49359685D02*
X69785917Y-49359685D01*
X69785917Y-49359685D02*
X69671632Y-49416828D01*
X69671632Y-49416828D02*
X69614489Y-49473971D01*
X69614489Y-49473971D02*
X69557346Y-49588257D01*
X69557346Y-49588257D02*
X69557346Y-49873971D01*
X69557346Y-49873971D02*
X69614489Y-49988257D01*
X69614489Y-49988257D02*
X69671632Y-50045400D01*
X69671632Y-50045400D02*
X69785917Y-50102542D01*
X69785917Y-50102542D02*
X70071632Y-50102542D01*
X70071632Y-50102542D02*
X70185917Y-50045400D01*
X70185917Y-50045400D02*
X70243060Y-49988257D01*
X80883488Y-51599685D02*
X80997774Y-51542542D01*
X80997774Y-51542542D02*
X81169202Y-51542542D01*
X81169202Y-51542542D02*
X81340631Y-51599685D01*
X81340631Y-51599685D02*
X81454916Y-51713971D01*
X81454916Y-51713971D02*
X81512059Y-51828257D01*
X81512059Y-51828257D02*
X81569202Y-52056828D01*
X81569202Y-52056828D02*
X81569202Y-52228257D01*
X81569202Y-52228257D02*
X81512059Y-52456828D01*
X81512059Y-52456828D02*
X81454916Y-52571114D01*
X81454916Y-52571114D02*
X81340631Y-52685400D01*
X81340631Y-52685400D02*
X81169202Y-52742542D01*
X81169202Y-52742542D02*
X81054916Y-52742542D01*
X81054916Y-52742542D02*
X80883488Y-52685400D01*
X80883488Y-52685400D02*
X80826345Y-52628257D01*
X80826345Y-52628257D02*
X80826345Y-52228257D01*
X80826345Y-52228257D02*
X81054916Y-52228257D01*
X80312059Y-52742542D02*
X80312059Y-51542542D01*
X80312059Y-51542542D02*
X79626345Y-52742542D01*
X79626345Y-52742542D02*
X79626345Y-51542542D01*
X79054916Y-52742542D02*
X79054916Y-51542542D01*
X79054916Y-51542542D02*
X78769202Y-51542542D01*
X78769202Y-51542542D02*
X78597773Y-51599685D01*
X78597773Y-51599685D02*
X78483488Y-51713971D01*
X78483488Y-51713971D02*
X78426345Y-51828257D01*
X78426345Y-51828257D02*
X78369202Y-52056828D01*
X78369202Y-52056828D02*
X78369202Y-52228257D01*
X78369202Y-52228257D02*
X78426345Y-52456828D01*
X78426345Y-52456828D02*
X78483488Y-52571114D01*
X78483488Y-52571114D02*
X78597773Y-52685400D01*
X78597773Y-52685400D02*
X78769202Y-52742542D01*
X78769202Y-52742542D02*
X79054916Y-52742542D01*
X70128774Y-60262542D02*
X69900203Y-60262542D01*
X69900203Y-60262542D02*
X69785917Y-60205400D01*
X69785917Y-60205400D02*
X69728774Y-60148257D01*
X69728774Y-60148257D02*
X69614489Y-59976828D01*
X69614489Y-59976828D02*
X69557346Y-59748257D01*
X69557346Y-59748257D02*
X69557346Y-59291114D01*
X69557346Y-59291114D02*
X69614489Y-59176828D01*
X69614489Y-59176828D02*
X69671632Y-59119685D01*
X69671632Y-59119685D02*
X69785917Y-59062542D01*
X69785917Y-59062542D02*
X70014489Y-59062542D01*
X70014489Y-59062542D02*
X70128774Y-59119685D01*
X70128774Y-59119685D02*
X70185917Y-59176828D01*
X70185917Y-59176828D02*
X70243060Y-59291114D01*
X70243060Y-59291114D02*
X70243060Y-59576828D01*
X70243060Y-59576828D02*
X70185917Y-59691114D01*
X70185917Y-59691114D02*
X70128774Y-59748257D01*
X70128774Y-59748257D02*
X70014489Y-59805400D01*
X70014489Y-59805400D02*
X69785917Y-59805400D01*
X69785917Y-59805400D02*
X69671632Y-59748257D01*
X69671632Y-59748257D02*
X69614489Y-59691114D01*
X69614489Y-59691114D02*
X69557346Y-59576828D01*
M02*
